<svg width="500" height="70" viewBox="0 0 500 70" fill="none" xmlns="http://www.w3.org/2000/svg">
<rect x="141" y="1" width="358" height="68" rx="34" stroke="white" stroke-width="2"/>
<rect width="400" height="70" rx="35" fill="white"/>
<path d="M71.6 47H66.768V37.144H57.712V47H52.88V24.152H57.712V33.112H66.768V24.152H71.6V47ZM79.8128 29.528V47H75.0447V29.528H79.8128ZM77.4448 22.68C78.1488 22.68 78.7568 22.8507 79.2688 23.192C79.7808 23.512 80.0368 24.12 80.0368 25.016C80.0368 25.8907 79.7808 26.4987 79.2688 26.84C78.7568 27.1813 78.1488 27.352 77.4448 27.352C76.7194 27.352 76.1008 27.1813 75.5888 26.84C75.0981 26.4987 74.8528 25.8907 74.8528 25.016C74.8528 24.12 75.0981 23.512 75.5888 23.192C76.1008 22.8507 76.7194 22.68 77.4448 22.68ZM92.6348 29.208C92.8694 29.208 93.1468 29.2187 93.4668 29.24C93.7868 29.2613 94.0428 29.2933 94.2348 29.336L93.8828 33.816C93.7334 33.7733 93.5094 33.7413 93.2108 33.72C92.9334 33.6773 92.6881 33.656 92.4748 33.656C91.8561 33.656 91.2588 33.7413 90.6828 33.912C90.1068 34.0613 89.5841 34.3067 89.1147 34.648C88.6667 34.9893 88.3041 35.448 88.0268 36.024C87.7708 36.5787 87.6428 37.272 87.6428 38.104V47H82.8747V29.528H86.4908L87.1948 32.472H87.4188C87.7601 31.8747 88.1868 31.3307 88.6988 30.84C89.2108 30.3493 89.7974 29.9547 90.4588 29.656C91.1414 29.3573 91.8668 29.208 92.6348 29.208ZM102.061 29.208C103.682 29.208 105.069 29.5173 106.221 30.136C107.394 30.7547 108.301 31.6507 108.941 32.824C109.581 33.9973 109.901 35.4373 109.901 37.144V39.448H98.637C98.6797 40.792 99.0743 41.848 99.821 42.616C100.589 43.384 101.645 43.768 102.989 43.768C104.12 43.768 105.144 43.6613 106.061 43.448C106.978 43.2133 107.928 42.8613 108.909 42.392V46.072C108.056 46.4987 107.149 46.808 106.189 47C105.25 47.2133 104.109 47.32 102.765 47.32C101.016 47.32 99.469 47 98.125 46.36C96.781 45.6987 95.725 44.7067 94.957 43.384C94.189 42.0613 93.805 40.3973 93.805 38.392C93.805 36.344 94.1463 34.648 94.829 33.304C95.533 31.9387 96.5037 30.9147 97.741 30.232C98.9783 29.5493 100.418 29.208 102.061 29.208ZM102.093 32.6C101.176 32.6 100.408 32.8987 99.789 33.496C99.1917 34.0933 98.8397 35.0213 98.733 36.28H105.421C105.421 35.576 105.293 34.9467 105.037 34.392C104.802 33.8373 104.44 33.4 103.949 33.08C103.458 32.76 102.84 32.6 102.093 32.6ZM137.568 35.352C137.568 37.912 137.077 40.056 136.096 41.784C135.114 43.512 133.685 44.8133 131.808 45.688C129.952 46.5627 127.712 47 125.088 47H118.624V24.152H125.792C128.181 24.152 130.25 24.5787 132 25.432C133.77 26.2853 135.136 27.544 136.096 29.208C137.077 30.8507 137.568 32.8987 137.568 35.352ZM132.544 35.48C132.544 33.7947 132.298 32.408 131.808 31.32C131.317 30.232 130.581 29.432 129.6 28.92C128.64 28.3867 127.456 28.12 126.048 28.12H123.456V43H125.536C127.904 43 129.664 42.3707 130.816 41.112C131.968 39.8533 132.544 37.976 132.544 35.48ZM147.207 29.208C148.829 29.208 150.215 29.5173 151.367 30.136C152.541 30.7547 153.447 31.6507 154.087 32.824C154.727 33.9973 155.047 35.4373 155.047 37.144V39.448H143.783C143.826 40.792 144.221 41.848 144.967 42.616C145.735 43.384 146.791 43.768 148.135 43.768C149.266 43.768 150.29 43.6613 151.207 43.448C152.125 43.2133 153.074 42.8613 154.055 42.392V46.072C153.202 46.4987 152.295 46.808 151.335 47C150.397 47.2133 149.255 47.32 147.911 47.32C146.162 47.32 144.615 47 143.271 46.36C141.927 45.6987 140.871 44.7067 140.103 43.384C139.335 42.0613 138.951 40.3973 138.951 38.392C138.951 36.344 139.293 34.648 139.975 33.304C140.679 31.9387 141.65 30.9147 142.887 30.232C144.125 29.5493 145.565 29.208 147.207 29.208ZM147.239 32.6C146.322 32.6 145.554 32.8987 144.935 33.496C144.338 34.0933 143.986 35.0213 143.879 36.28H150.567C150.567 35.576 150.439 34.9467 150.183 34.392C149.949 33.8373 149.586 33.4 149.095 33.08C148.605 32.76 147.986 32.6 147.239 32.6ZM160.528 47L153.872 29.528H158.864L162.224 39.48C162.352 39.864 162.459 40.2693 162.544 40.696C162.651 41.1227 162.726 41.5387 162.768 41.944C162.832 42.3493 162.875 42.7227 162.896 43.064H163.024C163.046 42.7013 163.088 42.3173 163.152 41.912C163.216 41.5067 163.291 41.1013 163.376 40.696C163.483 40.2693 163.6 39.864 163.728 39.48L167.088 29.528H172.08L165.424 47H160.528ZM179.867 29.208C181.489 29.208 182.875 29.5173 184.027 30.136C185.201 30.7547 186.107 31.6507 186.747 32.824C187.387 33.9973 187.707 35.4373 187.707 37.144V39.448H176.443C176.486 40.792 176.881 41.848 177.627 42.616C178.395 43.384 179.451 43.768 180.795 43.768C181.926 43.768 182.95 43.6613 183.867 43.448C184.785 43.2133 185.734 42.8613 186.715 42.392V46.072C185.862 46.4987 184.955 46.808 183.995 47C183.057 47.2133 181.915 47.32 180.571 47.32C178.822 47.32 177.275 47 175.931 46.36C174.587 45.6987 173.531 44.7067 172.763 43.384C171.995 42.0613 171.611 40.3973 171.611 38.392C171.611 36.344 171.953 34.648 172.635 33.304C173.339 31.9387 174.31 30.9147 175.547 30.232C176.785 29.5493 178.225 29.208 179.867 29.208ZM179.899 32.6C178.982 32.6 178.214 32.8987 177.595 33.496C176.998 34.0933 176.646 35.0213 176.539 36.28H183.227C183.227 35.576 183.099 34.9467 182.843 34.392C182.609 33.8373 182.246 33.4 181.755 33.08C181.265 32.76 180.646 32.6 179.899 32.6ZM194.422 47H189.654V22.68H194.422V47ZM213.356 38.232C213.356 39.6827 213.153 40.9733 212.748 42.104C212.364 43.2347 211.798 44.1947 211.052 44.984C210.326 45.752 209.441 46.3387 208.396 46.744C207.35 47.128 206.166 47.32 204.844 47.32C203.628 47.32 202.497 47.128 201.452 46.744C200.428 46.3387 199.542 45.752 198.796 44.984C198.049 44.1947 197.462 43.2347 197.036 42.104C196.63 40.9733 196.428 39.6827 196.428 38.232C196.428 36.2907 196.769 34.6587 197.452 33.336C198.134 31.992 199.116 30.968 200.396 30.264C201.676 29.56 203.19 29.208 204.94 29.208C206.582 29.208 208.033 29.56 209.292 30.264C210.55 30.968 211.542 31.992 212.268 33.336C212.993 34.6587 213.356 36.2907 213.356 38.232ZM201.292 38.232C201.292 39.384 201.409 40.3547 201.644 41.144C201.9 41.912 202.294 42.4987 202.828 42.904C203.361 43.288 204.054 43.48 204.908 43.48C205.761 43.48 206.444 43.288 206.956 42.904C207.489 42.4987 207.873 41.912 208.108 41.144C208.364 40.3547 208.492 39.384 208.492 38.232C208.492 37.08 208.364 36.12 208.108 35.352C207.873 34.584 207.489 34.008 206.956 33.624C206.422 33.24 205.729 33.048 204.876 33.048C203.617 33.048 202.7 33.4853 202.124 34.36C201.569 35.2133 201.292 36.504 201.292 38.232ZM225.104 29.208C227.067 29.208 228.656 29.976 229.872 31.512C231.088 33.0267 231.696 35.2667 231.696 38.232C231.696 40.216 231.408 41.8907 230.832 43.256C230.256 44.6 229.467 45.6133 228.464 46.296C227.461 46.9787 226.299 47.32 224.976 47.32C224.144 47.32 223.419 47.2133 222.8 47C222.203 46.7867 221.691 46.5093 221.264 46.168C220.837 45.8267 220.464 45.464 220.144 45.08H219.888C219.973 45.4853 220.037 45.912 220.08 46.36C220.123 46.7867 220.144 47.2133 220.144 47.64V54.68H215.376V29.528H219.248L219.92 31.8H220.144C220.464 31.3307 220.848 30.904 221.296 30.52C221.744 30.1147 222.277 29.7947 222.896 29.56C223.536 29.3253 224.272 29.208 225.104 29.208ZM223.568 33.016C222.736 33.016 222.075 33.1867 221.584 33.528C221.093 33.8693 220.731 34.392 220.496 35.096C220.283 35.7787 220.165 36.6427 220.144 37.688V38.2C220.144 39.3307 220.251 40.2907 220.464 41.08C220.677 41.848 221.04 42.4347 221.552 42.84C222.064 43.2453 222.757 43.448 223.632 43.448C224.357 43.448 224.955 43.2453 225.424 42.84C225.893 42.4347 226.245 41.8373 226.48 41.048C226.715 40.2587 226.832 39.2987 226.832 38.168C226.832 36.4613 226.565 35.1813 226.032 34.328C225.52 33.4533 224.699 33.016 223.568 33.016ZM240.906 29.208C242.527 29.208 243.914 29.5173 245.066 30.136C246.239 30.7547 247.146 31.6507 247.786 32.824C248.426 33.9973 248.746 35.4373 248.746 37.144V39.448H237.482C237.525 40.792 237.919 41.848 238.666 42.616C239.434 43.384 240.49 43.768 241.834 43.768C242.965 43.768 243.989 43.6613 244.906 43.448C245.823 43.2133 246.773 42.8613 247.754 42.392V46.072C246.901 46.4987 245.994 46.808 245.034 47C244.095 47.2133 242.954 47.32 241.61 47.32C239.861 47.32 238.314 47 236.97 46.36C235.626 45.6987 234.57 44.7067 233.802 43.384C233.034 42.0613 232.65 40.3973 232.65 38.392C232.65 36.344 232.991 34.648 233.674 33.304C234.378 31.9387 235.349 30.9147 236.586 30.232C237.823 29.5493 239.263 29.208 240.906 29.208ZM240.938 32.6C240.021 32.6 239.253 32.8987 238.634 33.496C238.037 34.0933 237.685 35.0213 237.578 36.28H244.266C244.266 35.576 244.138 34.9467 243.882 34.392C243.647 33.8373 243.285 33.4 242.794 33.08C242.303 32.76 241.685 32.6 240.938 32.6ZM260.452 29.208C260.687 29.208 260.964 29.2187 261.284 29.24C261.604 29.2613 261.86 29.2933 262.052 29.336L261.7 33.816C261.551 33.7733 261.327 33.7413 261.028 33.72C260.751 33.6773 260.506 33.656 260.292 33.656C259.674 33.656 259.076 33.7413 258.5 33.912C257.924 34.0613 257.402 34.3067 256.932 34.648C256.484 34.9893 256.122 35.448 255.844 36.024C255.588 36.5787 255.46 37.272 255.46 38.104V47H250.692V29.528H254.308L255.012 32.472H255.236C255.578 31.8747 256.004 31.3307 256.516 30.84C257.028 30.3493 257.615 29.9547 258.276 29.656C258.959 29.3573 259.684 29.208 260.452 29.208ZM275.495 41.816C275.495 42.9893 275.218 43.992 274.663 44.824C274.109 45.6347 273.277 46.2533 272.167 46.68C271.058 47.1067 269.682 47.32 268.039 47.32C266.823 47.32 265.778 47.2347 264.903 47.064C264.029 46.9147 263.154 46.6587 262.279 46.296V42.36C263.218 42.7867 264.231 43.1387 265.319 43.416C266.407 43.6933 267.367 43.832 268.199 43.832C269.138 43.832 269.799 43.6933 270.183 43.416C270.589 43.1387 270.791 42.776 270.791 42.328C270.791 42.0293 270.706 41.7627 270.535 41.528C270.386 41.2933 270.045 41.0267 269.511 40.728C268.978 40.4293 268.146 40.0453 267.015 39.576C265.927 39.1067 265.031 38.648 264.327 38.2C263.623 37.7307 263.101 37.176 262.759 36.536C262.418 35.8747 262.247 35.0533 262.247 34.072C262.247 32.4507 262.877 31.2347 264.135 30.424C265.394 29.6133 267.069 29.208 269.159 29.208C270.247 29.208 271.282 29.3147 272.263 29.528C273.245 29.7413 274.258 30.0933 275.303 30.584L273.863 34.008C273.287 33.752 272.733 33.528 272.199 33.336C271.666 33.144 271.143 32.9947 270.631 32.888C270.141 32.7813 269.629 32.728 269.095 32.728C268.391 32.728 267.858 32.824 267.495 33.016C267.154 33.208 266.983 33.496 266.983 33.88C266.983 34.1573 267.069 34.4133 267.239 34.648C267.431 34.8613 267.783 35.096 268.295 35.352C268.829 35.608 269.607 35.9493 270.631 36.376C271.634 36.7813 272.498 37.208 273.223 37.656C273.949 38.0827 274.503 38.6267 274.887 39.288C275.293 39.928 275.495 40.7707 275.495 41.816ZM304.322 47H298.178L288.226 29.72H288.098C288.12 30.2533 288.141 30.7973 288.162 31.352C288.184 31.8853 288.205 32.4293 288.226 32.984C288.269 33.5173 288.301 34.0613 288.322 34.616C288.344 35.1493 288.365 35.6933 288.386 36.248V47H284.066V24.152H290.178L300.098 41.272H300.194C300.173 40.7387 300.152 40.216 300.13 39.704C300.109 39.1707 300.088 38.648 300.066 38.136C300.066 37.6027 300.056 37.08 300.034 36.568C300.013 36.0347 299.992 35.5013 299.97 34.968V24.152H304.322V47ZM323.666 38.232C323.666 39.6827 323.463 40.9733 323.058 42.104C322.674 43.2347 322.108 44.1947 321.362 44.984C320.636 45.752 319.751 46.3387 318.706 46.744C317.66 47.128 316.476 47.32 315.154 47.32C313.938 47.32 312.807 47.128 311.762 46.744C310.738 46.3387 309.852 45.752 309.106 44.984C308.359 44.1947 307.772 43.2347 307.346 42.104C306.94 40.9733 306.738 39.6827 306.738 38.232C306.738 36.2907 307.079 34.6587 307.762 33.336C308.444 31.992 309.426 30.968 310.706 30.264C311.986 29.56 313.5 29.208 315.25 29.208C316.892 29.208 318.343 29.56 319.602 30.264C320.86 30.968 321.852 31.992 322.578 33.336C323.303 34.6587 323.666 36.2907 323.666 38.232ZM311.602 38.232C311.602 39.384 311.719 40.3547 311.954 41.144C312.21 41.912 312.604 42.4987 313.138 42.904C313.671 43.288 314.364 43.48 315.218 43.48C316.071 43.48 316.754 43.288 317.266 42.904C317.799 42.4987 318.183 41.912 318.418 41.144C318.674 40.3547 318.802 39.384 318.802 38.232C318.802 37.08 318.674 36.12 318.418 35.352C318.183 34.584 317.799 34.008 317.266 33.624C316.732 33.24 316.039 33.048 315.186 33.048C313.927 33.048 313.01 33.4853 312.434 34.36C311.879 35.2133 311.602 36.504 311.602 38.232ZM338.085 40.888C338 40.5253 337.872 39.992 337.701 39.288C337.552 38.5627 337.381 37.7947 337.189 36.984C336.997 36.152 336.816 35.3947 336.645 34.712C336.474 34.008 336.357 33.496 336.293 33.176H336.165C336.101 33.496 335.984 34.008 335.813 34.712C335.664 35.3947 335.493 36.152 335.301 36.984C335.109 37.7947 334.928 38.5627 334.757 39.288C334.586 40.0133 334.458 40.568 334.373 40.952L332.965 47H327.845L322.885 29.528H327.621L329.637 37.272C329.786 37.8053 329.914 38.4453 330.021 39.192C330.149 39.9387 330.266 40.664 330.373 41.368C330.48 42.0507 330.554 42.5947 330.597 43H330.725C330.746 42.7013 330.789 42.3067 330.853 41.816C330.917 41.304 330.992 40.7813 331.077 40.248C331.184 39.7147 331.269 39.2347 331.333 38.808C331.418 38.36 331.482 38.0613 331.525 37.912L333.669 29.528H338.917L340.965 37.912C341.05 38.2107 341.146 38.6907 341.253 39.352C341.381 40.0133 341.488 40.6853 341.573 41.368C341.68 42.0507 341.733 42.5947 341.733 43H341.861C341.904 42.6373 341.978 42.1147 342.085 41.432C342.192 40.728 342.309 39.992 342.437 39.224C342.586 38.456 342.736 37.8053 342.885 37.272L344.965 29.528H349.637L344.613 47H339.429L338.085 40.888Z" fill="black"/>
<g clip-path="url(#clip0_1028_23)">
<path d="M460.947 23.2258C460.959 21.6815 459.715 20.4376 458.171 20.4499L438.405 20.6072C436.861 20.6195 435.597 21.8834 435.584 23.4276C435.572 24.9719 436.816 26.2158 438.36 26.2035L451.387 26.0937L432.286 45.1953C431.184 46.2974 431.17 48.064 432.254 49.1486C433.339 50.2332 435.106 50.2191 436.208 49.1171L455.303 30.0216L455.206 43.0364C455.193 44.5806 456.437 45.8246 457.981 45.8123C459.526 45.8 460.79 44.5361 460.802 42.9919L460.959 23.2257L460.947 23.2258Z" fill="white"/>
</g>
<defs>
<clipPath id="clip0_1028_23">
<rect width="39.4466" height="34.7506" fill="white" transform="translate(420 36.8931) rotate(-45)"/>
</clipPath>
</defs>
</svg>
