<svg width="500" height="80" viewBox="0 0 500 80" fill="none" xmlns="http://www.w3.org/2000/svg">
<rect x="102" y="2" width="396" height="76" rx="38" stroke="#CF2D31" stroke-width="4"/>
<rect width="400" height="80" rx="40" fill="#CF2D31"/>
<path d="M64.92 56H61.32V30.6H52.4V27.44H73.8V30.6H64.92V56ZM80.5434 34.2C83.1568 34.2 85.0901 34.7733 86.3434 35.92C87.5968 37.0667 88.2234 38.8933 88.2234 41.4V56H85.6634L84.9834 52.96H84.8234C84.2101 53.7333 83.5701 54.3867 82.9034 54.92C82.2634 55.4267 81.5168 55.8 80.6634 56.04C79.8368 56.28 78.8234 56.4 77.6234 56.4C76.3434 56.4 75.1834 56.1733 74.1434 55.72C73.1301 55.2667 72.3301 54.5733 71.7434 53.64C71.1568 52.68 70.8634 51.48 70.8634 50.04C70.8634 47.9067 71.7034 46.2667 73.3834 45.12C75.0634 43.9467 77.6501 43.3067 81.1434 43.2L84.7834 43.08V41.8C84.7834 40.0133 84.3968 38.7733 83.6234 38.08C82.8501 37.3867 81.7568 37.04 80.3434 37.04C79.2234 37.04 78.1568 37.2133 77.1434 37.56C76.1301 37.88 75.1834 38.2533 74.3034 38.68L73.2234 36.04C74.1568 35.5333 75.2634 35.1067 76.5434 34.76C77.8234 34.3867 79.1568 34.2 80.5434 34.2ZM81.5834 45.64C78.9168 45.7467 77.0634 46.1733 76.0234 46.92C75.0101 47.6667 74.5034 48.72 74.5034 50.08C74.5034 51.28 74.8634 52.16 75.5834 52.72C76.3301 53.28 77.2768 53.56 78.4234 53.56C80.2368 53.56 81.7434 53.0667 82.9434 52.08C84.1434 51.0667 84.7434 49.52 84.7434 47.44V45.52L81.5834 45.64ZM96.3653 56H92.8453V25.6H96.3653V56ZM104.638 41.48C104.638 41.9067 104.611 42.4667 104.558 43.16C104.531 43.8533 104.504 44.4533 104.478 44.96H104.638C104.798 44.7467 105.038 44.44 105.358 44.04C105.678 43.64 105.998 43.24 106.318 42.84C106.664 42.4133 106.958 42.0667 107.198 41.8L114.038 34.56H118.158L109.478 43.72L118.758 56H114.518L107.078 46L104.638 48.12V56H101.158V25.6H104.638V41.48ZM136.076 53.52C136.609 53.52 137.156 53.48 137.716 53.4C138.276 53.2933 138.729 53.1867 139.076 53.08V55.76C138.702 55.9467 138.169 56.0933 137.476 56.2C136.782 56.3333 136.116 56.4 135.476 56.4C134.356 56.4 133.316 56.2133 132.356 55.84C131.422 55.44 130.662 54.76 130.076 53.8C129.489 52.84 129.196 51.4933 129.196 49.76V37.28H126.156V35.6L129.236 34.2L130.636 29.64H132.716V34.56H138.916V37.28H132.716V49.68C132.716 50.9867 133.022 51.96 133.636 52.6C134.276 53.2133 135.089 53.52 136.076 53.52ZM160.009 45.24C160.009 47.0267 159.769 48.6133 159.289 50C158.835 51.36 158.169 52.52 157.289 53.48C156.435 54.44 155.382 55.1733 154.129 55.68C152.902 56.16 151.529 56.4 150.009 56.4C148.595 56.4 147.289 56.16 146.089 55.68C144.889 55.1733 143.849 54.44 142.969 53.48C142.089 52.52 141.395 51.36 140.889 50C140.409 48.6133 140.169 47.0267 140.169 45.24C140.169 42.8667 140.569 40.8667 141.369 39.24C142.169 37.5867 143.315 36.3333 144.809 35.48C146.302 34.6 148.075 34.16 150.129 34.16C152.075 34.16 153.782 34.6 155.249 35.48C156.742 36.3333 157.902 37.5867 158.729 39.24C159.582 40.8667 160.009 42.8667 160.009 45.24ZM143.809 45.24C143.809 46.92 144.022 48.3867 144.449 49.64C144.902 50.8667 145.595 51.8133 146.529 52.48C147.462 53.1467 148.649 53.48 150.089 53.48C151.529 53.48 152.715 53.1467 153.649 52.48C154.582 51.8133 155.262 50.8667 155.689 49.64C156.142 48.3867 156.369 46.92 156.369 45.24C156.369 43.5333 156.142 42.08 155.689 40.88C155.235 39.68 154.542 38.76 153.609 38.12C152.702 37.4533 151.515 37.12 150.049 37.12C147.862 37.12 146.275 37.84 145.289 39.28C144.302 40.72 143.809 42.7067 143.809 45.24ZM190.618 45.24C190.618 47.0267 190.378 48.6133 189.898 50C189.445 51.36 188.778 52.52 187.898 53.48C187.045 54.44 185.991 55.1733 184.738 55.68C183.511 56.16 182.138 56.4 180.618 56.4C179.205 56.4 177.898 56.16 176.698 55.68C175.498 55.1733 174.458 54.44 173.578 53.48C172.698 52.52 172.005 51.36 171.498 50C171.018 48.6133 170.778 47.0267 170.778 45.24C170.778 42.8667 171.178 40.8667 171.978 39.24C172.778 37.5867 173.925 36.3333 175.418 35.48C176.911 34.6 178.685 34.16 180.738 34.16C182.685 34.16 184.391 34.6 185.858 35.48C187.351 36.3333 188.511 37.5867 189.338 39.24C190.191 40.8667 190.618 42.8667 190.618 45.24ZM174.418 45.24C174.418 46.92 174.631 48.3867 175.058 49.64C175.511 50.8667 176.205 51.8133 177.138 52.48C178.071 53.1467 179.258 53.48 180.698 53.48C182.138 53.48 183.325 53.1467 184.258 52.48C185.191 51.8133 185.871 50.8667 186.298 49.64C186.751 48.3867 186.978 46.92 186.978 45.24C186.978 43.5333 186.751 42.08 186.298 40.88C185.845 39.68 185.151 38.76 184.218 38.12C183.311 37.4533 182.125 37.12 180.658 37.12C178.471 37.12 176.885 37.84 175.898 39.28C174.911 40.72 174.418 42.7067 174.418 45.24ZM212.117 34.56V56H209.237L208.717 53.16H208.557C208.104 53.9067 207.517 54.52 206.797 55C206.077 55.48 205.29 55.8267 204.437 56.04C203.584 56.28 202.69 56.4 201.757 56.4C200.05 56.4 198.61 56.1333 197.437 55.6C196.29 55.04 195.424 54.1867 194.837 53.04C194.25 51.8933 193.957 50.4133 193.957 48.6V34.56H197.517V48.36C197.517 50.0667 197.904 51.3467 198.677 52.2C199.45 53.0533 200.65 53.48 202.277 53.48C203.877 53.48 205.13 53.1867 206.037 52.6C206.97 51.9867 207.624 51.1067 207.997 49.96C208.397 48.7867 208.597 47.3733 208.597 45.72V34.56H212.117ZM226.923 34.16C227.323 34.16 227.75 34.1867 228.203 34.24C228.683 34.2667 229.097 34.32 229.443 34.4L229.003 37.64C228.657 37.56 228.27 37.4933 227.843 37.44C227.443 37.3867 227.057 37.36 226.683 37.36C225.857 37.36 225.07 37.5333 224.323 37.88C223.577 38.2267 222.91 38.72 222.323 39.36C221.737 39.9733 221.27 40.72 220.923 41.6C220.603 42.48 220.443 43.4667 220.443 44.56V56H216.923V34.56H219.803L220.203 38.48H220.363C220.817 37.68 221.363 36.96 222.003 36.32C222.643 35.6533 223.377 35.1333 224.203 34.76C225.03 34.36 225.937 34.16 226.923 34.16ZM248.118 34.16C249.958 34.16 251.531 34.56 252.838 35.36C254.171 36.16 255.184 37.2933 255.878 38.76C256.598 40.2 256.958 41.8933 256.958 43.84V45.96H242.278C242.331 48.3867 242.944 50.24 244.118 51.52C245.318 52.7733 246.984 53.4 249.118 53.4C250.478 53.4 251.678 53.28 252.718 53.04C253.784 52.7733 254.878 52.4 255.998 51.92V55C254.904 55.48 253.824 55.8267 252.758 56.04C251.691 56.28 250.424 56.4 248.958 56.4C246.931 56.4 245.131 55.9867 243.558 55.16C242.011 54.3333 240.798 53.1067 239.918 51.48C239.064 49.8267 238.638 47.8133 238.638 45.44C238.638 43.0933 239.024 41.08 239.798 39.4C240.598 37.72 241.704 36.4267 243.118 35.52C244.558 34.6133 246.224 34.16 248.118 34.16ZM248.078 37.04C246.398 37.04 245.064 37.5867 244.078 38.68C243.118 39.7467 242.544 41.24 242.358 43.16H253.278C253.278 41.9333 253.091 40.8667 252.718 39.96C252.344 39.0533 251.771 38.3467 250.998 37.84C250.251 37.3067 249.278 37.04 248.078 37.04ZM264.714 45.04L257.314 34.56H261.314L266.834 42.64L272.314 34.56H276.274L268.874 45.04L276.674 56H272.674L266.834 47.44L260.914 56H256.954L264.714 45.04ZM289.006 34.16C291.646 34.16 293.766 35.08 295.366 36.92C296.993 38.76 297.806 41.5333 297.806 45.24C297.806 47.6667 297.433 49.72 296.686 51.4C295.966 53.0533 294.94 54.3067 293.606 55.16C292.3 55.9867 290.753 56.4 288.966 56.4C287.873 56.4 286.9 56.2533 286.046 55.96C285.193 55.6667 284.46 55.2933 283.846 54.84C283.26 54.36 282.753 53.84 282.326 53.28H282.086C282.14 53.7333 282.193 54.3067 282.246 55C282.3 55.6933 282.326 56.2933 282.326 56.8V65.6H278.806V34.56H281.686L282.166 37.48H282.326C282.753 36.8667 283.26 36.3067 283.846 35.8C284.46 35.2933 285.18 34.8933 286.006 34.6C286.86 34.3067 287.86 34.16 289.006 34.16ZM288.366 37.12C286.926 37.12 285.766 37.4 284.886 37.96C284.006 38.4933 283.366 39.3067 282.966 40.4C282.566 41.4933 282.353 42.88 282.326 44.56V45.24C282.326 47 282.513 48.4933 282.886 49.72C283.26 50.9467 283.886 51.88 284.766 52.52C285.673 53.16 286.9 53.48 288.446 53.48C289.753 53.48 290.82 53.12 291.646 52.4C292.5 51.68 293.126 50.7067 293.526 49.48C293.953 48.2267 294.166 46.8 294.166 45.2C294.166 42.7467 293.686 40.7867 292.726 39.32C291.793 37.8533 290.34 37.12 288.366 37.12ZM309.696 34.16C311.536 34.16 313.109 34.56 314.416 35.36C315.749 36.16 316.762 37.2933 317.456 38.76C318.176 40.2 318.536 41.8933 318.536 43.84V45.96H303.856C303.909 48.3867 304.522 50.24 305.696 51.52C306.896 52.7733 308.562 53.4 310.696 53.4C312.056 53.4 313.256 53.28 314.296 53.04C315.362 52.7733 316.456 52.4 317.576 51.92V55C316.482 55.48 315.402 55.8267 314.336 56.04C313.269 56.28 312.002 56.4 310.536 56.4C308.509 56.4 306.709 55.9867 305.136 55.16C303.589 54.3333 302.376 53.1067 301.496 51.48C300.642 49.8267 300.216 47.8133 300.216 45.44C300.216 43.0933 300.602 41.08 301.376 39.4C302.176 37.72 303.282 36.4267 304.696 35.52C306.136 34.6133 307.802 34.16 309.696 34.16ZM309.656 37.04C307.976 37.04 306.642 37.5867 305.656 38.68C304.696 39.7467 304.122 41.24 303.936 43.16H314.856C314.856 41.9333 314.669 40.8667 314.296 39.96C313.922 39.0533 313.349 38.3467 312.576 37.84C311.829 37.3067 310.856 37.04 309.656 37.04ZM331.994 34.16C332.394 34.16 332.82 34.1867 333.274 34.24C333.754 34.2667 334.167 34.32 334.514 34.4L334.074 37.64C333.727 37.56 333.34 37.4933 332.914 37.44C332.514 37.3867 332.127 37.36 331.754 37.36C330.927 37.36 330.14 37.5333 329.394 37.88C328.647 38.2267 327.98 38.72 327.394 39.36C326.807 39.9733 326.34 40.72 325.994 41.6C325.674 42.48 325.514 43.4667 325.514 44.56V56H321.994V34.56H324.874L325.274 38.48H325.434C325.887 37.68 326.434 36.96 327.074 36.32C327.714 35.6533 328.447 35.1333 329.274 34.76C330.1 34.36 331.007 34.16 331.994 34.16ZM343.677 53.52C344.211 53.52 344.757 53.48 345.317 53.4C345.877 53.2933 346.331 53.1867 346.677 53.08V55.76C346.304 55.9467 345.771 56.0933 345.077 56.2C344.384 56.3333 343.717 56.4 343.077 56.4C341.957 56.4 340.917 56.2133 339.957 55.84C339.024 55.44 338.264 54.76 337.677 53.8C337.091 52.84 336.797 51.4933 336.797 49.76V37.28H333.757V35.6L336.837 34.2L338.237 29.64H340.317V34.56H346.517V37.28H340.317V49.68C340.317 50.9867 340.624 51.96 341.237 52.6C341.877 53.2133 342.691 53.52 343.677 53.52Z" fill="white"/>
<g clip-path="url(#clip0_980_3)">
<path d="M461.947 29.2258C461.959 27.6815 460.715 26.4376 459.171 26.4499L439.405 26.6072C437.861 26.6195 436.597 27.8834 436.584 29.4276C436.572 30.9719 437.816 32.2158 439.36 32.2035L452.387 32.0937L433.286 51.1953C432.184 52.2974 432.17 54.064 433.254 55.1486C434.339 56.2332 436.106 56.2191 437.208 55.1171L456.303 36.0216L456.206 49.0364C456.193 50.5806 457.437 51.8246 458.981 51.8123C460.526 51.8 461.79 50.5361 461.802 48.9919L461.959 29.2257L461.947 29.2258Z" fill="#CF2D31"/>
</g>
<defs>
<clipPath id="clip0_980_3">
<rect width="39.4466" height="34.7506" fill="white" transform="translate(421 42.8931) rotate(-45)"/>
</clipPath>
</defs>
</svg>
