<svg width="550" height="70" viewBox="0 0 550 70" fill="none" xmlns="http://www.w3.org/2000/svg">
<rect x="91" y="1" width="458" height="68" rx="34" stroke="white" stroke-width="2"/>
<rect width="450" height="70" rx="35" fill="white"/>
<path d="M87.864 47H84.408V36.568H73.496V47H70.04V24.152H73.496V33.624H84.408V24.152H87.864V47ZM95.0655 29.752V47H91.6735V29.752H95.0655ZM93.4015 23.192C93.9135 23.192 94.3615 23.3413 94.7455 23.64C95.1295 23.9387 95.3215 24.44 95.3215 25.144C95.3215 25.8267 95.1295 26.328 94.7455 26.648C94.3615 26.9467 93.9135 27.096 93.4015 27.096C92.8468 27.096 92.3775 26.9467 91.9935 26.648C91.6308 26.328 91.4495 25.8267 91.4495 25.144C91.4495 24.44 91.6308 23.9387 91.9935 23.64C92.3775 23.3413 92.8468 23.192 93.4015 23.192ZM106.984 29.432C107.283 29.432 107.614 29.4533 107.976 29.496C108.339 29.5173 108.638 29.5493 108.872 29.592L108.52 32.76C108.286 32.696 108.008 32.6427 107.688 32.6C107.368 32.5573 107.07 32.536 106.792 32.536C106.152 32.536 105.534 32.664 104.936 32.92C104.36 33.1547 103.838 33.5067 103.368 33.976C102.899 34.424 102.526 34.9787 102.248 35.64C101.992 36.3013 101.864 37.0587 101.864 37.912V47H98.4722V29.752H101.16L101.608 32.824H101.736C102.099 32.2053 102.536 31.64 103.048 31.128C103.56 30.616 104.147 30.2107 104.808 29.912C105.47 29.592 106.195 29.432 106.984 29.432ZM116.305 29.432C117.82 29.432 119.121 29.752 120.209 30.392C121.297 31.0107 122.129 31.9067 122.705 33.08C123.302 34.2533 123.601 35.64 123.601 37.24V39.096H112.017C112.06 40.8667 112.518 42.2213 113.393 43.16C114.289 44.0987 115.537 44.568 117.137 44.568C118.246 44.568 119.228 44.472 120.081 44.28C120.956 44.0667 121.852 43.7573 122.769 43.352V46.168C121.916 46.552 121.041 46.84 120.145 47.032C119.27 47.224 118.225 47.32 117.009 47.32C115.345 47.32 113.873 46.9893 112.593 46.328C111.313 45.6667 110.31 44.6853 109.585 43.384C108.881 42.0613 108.529 40.44 108.529 38.52C108.529 36.5787 108.849 34.936 109.489 33.592C110.15 32.248 111.057 31.224 112.209 30.52C113.382 29.7947 114.748 29.432 116.305 29.432ZM116.305 32.056C115.089 32.056 114.108 32.4507 113.361 33.24C112.636 34.0293 112.209 35.1493 112.081 36.6H120.209C120.209 35.704 120.07 34.9147 119.793 34.232C119.516 33.5493 119.089 33.016 118.513 32.632C117.937 32.248 117.201 32.056 116.305 32.056ZM142.642 47L135.73 27.576H135.602C135.623 28.0027 135.655 28.5787 135.698 29.304C135.741 30.0293 135.773 30.808 135.794 31.64C135.815 32.472 135.826 33.2933 135.826 34.104V47H132.69V24.152H137.618L144.178 42.488H144.306L151.058 24.152H155.986V47H152.626V33.912C152.626 33.1653 152.637 32.3973 152.658 31.608C152.701 30.7973 152.733 30.04 152.754 29.336C152.797 28.632 152.829 28.056 152.85 27.608H152.722L145.618 47H142.642ZM157.137 29.752H160.785L164.369 39.544C164.561 40.0347 164.732 40.5147 164.881 40.984C165.03 41.4533 165.158 41.9227 165.265 42.392C165.393 42.84 165.489 43.288 165.553 43.736H165.681C165.788 43.1813 165.958 42.5307 166.193 41.784C166.428 41.016 166.673 40.2587 166.929 39.512L170.321 29.752H173.969L166.577 49.336C166.172 50.4453 165.67 51.3947 165.073 52.184C164.476 52.9947 163.761 53.6133 162.929 54.04C162.118 54.4667 161.158 54.68 160.049 54.68C159.516 54.68 159.057 54.648 158.673 54.584C158.289 54.5413 157.958 54.488 157.681 54.424V51.736C157.916 51.7787 158.193 51.8213 158.513 51.864C158.854 51.9067 159.206 51.928 159.569 51.928C160.23 51.928 160.796 51.8 161.265 51.544C161.756 51.288 162.161 50.9253 162.481 50.456C162.822 49.9867 163.11 49.4533 163.345 48.856L164.049 47L157.137 29.752ZM184.916 47H181.492V24.152H194.356V27.096H184.916V34.552H193.748V37.496H184.916V47ZM199.487 29.752V47H196.095V29.752H199.487ZM197.823 23.192C198.335 23.192 198.783 23.3413 199.167 23.64C199.551 23.9387 199.743 24.44 199.743 25.144C199.743 25.8267 199.551 26.328 199.167 26.648C198.783 26.9467 198.335 27.096 197.823 27.096C197.268 27.096 196.799 26.9467 196.415 26.648C196.052 26.328 195.871 25.8267 195.871 25.144C195.871 24.44 196.052 23.9387 196.415 23.64C196.799 23.3413 197.268 23.192 197.823 23.192ZM211.406 29.432C211.704 29.432 212.035 29.4533 212.398 29.496C212.76 29.5173 213.059 29.5493 213.294 29.592L212.942 32.76C212.707 32.696 212.43 32.6427 212.11 32.6C211.79 32.5573 211.491 32.536 211.214 32.536C210.574 32.536 209.955 32.664 209.358 32.92C208.782 33.1547 208.259 33.5067 207.79 33.976C207.32 34.424 206.947 34.9787 206.67 35.64C206.414 36.3013 206.286 37.0587 206.286 37.912V47H202.894V29.752H205.582L206.03 32.824H206.158C206.52 32.2053 206.958 31.64 207.47 31.128C207.982 30.616 208.568 30.2107 209.23 29.912C209.891 29.592 210.616 29.432 211.406 29.432ZM226.023 42.136C226.023 43.2667 225.746 44.216 225.191 44.984C224.637 45.752 223.837 46.3387 222.791 46.744C221.746 47.128 220.487 47.32 219.015 47.32C217.799 47.32 216.754 47.224 215.879 47.032C215.026 46.8613 214.237 46.6053 213.511 46.264V43.288C214.279 43.6507 215.165 43.9813 216.167 44.28C217.17 44.5573 218.151 44.696 219.111 44.696C220.391 44.696 221.309 44.4933 221.863 44.088C222.439 43.6827 222.727 43.1387 222.727 42.456C222.727 42.072 222.621 41.7307 222.407 41.432C222.194 41.112 221.789 40.792 221.191 40.472C220.615 40.1307 219.762 39.7467 218.631 39.32C217.543 38.872 216.615 38.4347 215.847 38.008C215.079 37.56 214.493 37.0373 214.087 36.44C213.682 35.8213 213.479 35.032 213.479 34.072C213.479 32.5787 214.077 31.4373 215.271 30.648C216.487 29.8373 218.087 29.432 220.071 29.432C221.117 29.432 222.098 29.5387 223.015 29.752C223.954 29.944 224.861 30.2427 225.735 30.648L224.615 33.24C224.125 33.0053 223.613 32.8133 223.079 32.664C222.567 32.4933 222.045 32.3547 221.511 32.248C220.999 32.1413 220.466 32.088 219.911 32.088C218.887 32.088 218.109 32.248 217.575 32.568C217.042 32.888 216.775 33.336 216.775 33.912C216.775 34.3173 216.893 34.6693 217.127 34.968C217.383 35.2667 217.821 35.5653 218.439 35.864C219.058 36.1627 219.901 36.5253 220.967 36.952C222.034 37.3573 222.941 37.7733 223.687 38.2C224.455 38.6267 225.031 39.1493 225.415 39.768C225.821 40.3867 226.023 41.176 226.023 42.136ZM234.355 44.568C234.803 44.568 235.262 44.5253 235.731 44.44C236.201 44.3547 236.606 44.2587 236.947 44.152V46.712C236.585 46.8827 236.094 47.0213 235.475 47.128C234.857 47.256 234.238 47.32 233.619 47.32C232.681 47.32 231.817 47.16 231.027 46.84C230.259 46.52 229.641 45.9653 229.171 45.176C228.702 44.3867 228.467 43.288 228.467 41.88V32.344H226.067V30.808L228.595 29.528L229.779 25.88H231.859V29.752H236.787V32.344H231.859V41.816C231.859 42.7547 232.083 43.448 232.531 43.896C233.001 44.344 233.609 44.568 234.355 44.568ZM263.75 35.352C263.75 37.912 263.27 40.056 262.31 41.784C261.35 43.512 259.963 44.8133 258.15 45.688C256.358 46.5627 254.192 47 251.654 47H245.254V24.152H252.326C254.651 24.152 256.667 24.5787 258.374 25.432C260.08 26.2853 261.403 27.544 262.342 29.208C263.28 30.8507 263.75 32.8987 263.75 35.352ZM260.134 35.448C260.134 33.528 259.824 31.9493 259.206 30.712C258.587 29.4747 257.67 28.5573 256.454 27.96C255.259 27.3627 253.808 27.064 252.102 27.064H248.71V44.088H251.494C254.374 44.088 256.528 43.3627 257.958 41.912C259.408 40.4613 260.134 38.3067 260.134 35.448ZM273.202 29.432C274.717 29.432 276.018 29.752 277.106 30.392C278.194 31.0107 279.026 31.9067 279.602 33.08C280.2 34.2533 280.498 35.64 280.498 37.24V39.096H268.914C268.957 40.8667 269.416 42.2213 270.29 43.16C271.186 44.0987 272.434 44.568 274.034 44.568C275.144 44.568 276.125 44.472 276.978 44.28C277.853 44.0667 278.749 43.7573 279.666 43.352V46.168C278.813 46.552 277.938 46.84 277.042 47.032C276.168 47.224 275.122 47.32 273.906 47.32C272.242 47.32 270.77 46.9893 269.49 46.328C268.21 45.6667 267.208 44.6853 266.482 43.384C265.778 42.0613 265.426 40.44 265.426 38.52C265.426 36.5787 265.746 34.936 266.386 33.592C267.048 32.248 267.954 31.224 269.106 30.52C270.28 29.7947 271.645 29.432 273.202 29.432ZM273.202 32.056C271.986 32.056 271.005 32.4507 270.258 33.24C269.533 34.0293 269.106 35.1493 268.978 36.6H277.106C277.106 35.704 276.968 34.9147 276.69 34.232C276.413 33.5493 275.986 33.016 275.41 32.632C274.834 32.248 274.098 32.056 273.202 32.056ZM286.058 47L279.53 29.752H283.114L286.698 39.832C286.847 40.2587 286.997 40.7387 287.146 41.272C287.317 41.8053 287.466 42.3173 287.594 42.808C287.722 43.2987 287.807 43.7253 287.85 44.088H287.978C288.042 43.7253 288.138 43.2987 288.266 42.808C288.415 42.296 288.575 41.784 288.746 41.272C288.917 40.7387 289.066 40.2587 289.194 39.832L292.778 29.752H296.362L289.802 47H286.058ZM303.894 29.432C305.408 29.432 306.71 29.752 307.798 30.392C308.886 31.0107 309.718 31.9067 310.294 33.08C310.891 34.2533 311.19 35.64 311.19 37.24V39.096H299.606C299.648 40.8667 300.107 42.2213 300.982 43.16C301.878 44.0987 303.126 44.568 304.726 44.568C305.835 44.568 306.816 44.472 307.67 44.28C308.544 44.0667 309.44 43.7573 310.358 43.352V46.168C309.504 46.552 308.63 46.84 307.734 47.032C306.859 47.224 305.814 47.32 304.598 47.32C302.934 47.32 301.462 46.9893 300.182 46.328C298.902 45.6667 297.899 44.6853 297.174 43.384C296.47 42.0613 296.118 40.44 296.118 38.52C296.118 36.5787 296.438 34.936 297.078 33.592C297.739 32.248 298.646 31.224 299.798 30.52C300.971 29.7947 302.336 29.432 303.894 29.432ZM303.894 32.056C302.678 32.056 301.696 32.4507 300.95 33.24C300.224 34.0293 299.798 35.1493 299.67 36.6H307.798C307.798 35.704 307.659 34.9147 307.382 34.232C307.104 33.5493 306.678 33.016 306.102 32.632C305.526 32.248 304.79 32.056 303.894 32.056ZM316.894 47H313.502V22.68H316.894V47ZM335.501 38.36C335.501 39.7893 335.309 41.0587 334.925 42.168C334.541 43.2773 333.997 44.216 333.293 44.984C332.589 45.752 331.736 46.3387 330.733 46.744C329.73 47.128 328.6 47.32 327.341 47.32C326.189 47.32 325.122 47.128 324.141 46.744C323.16 46.3387 322.306 45.752 321.581 44.984C320.877 44.216 320.322 43.2773 319.917 42.168C319.512 41.0587 319.309 39.7787 319.309 38.328C319.309 36.4293 319.629 34.8187 320.269 33.496C320.93 32.1733 321.869 31.1707 323.085 30.488C324.322 29.784 325.773 29.432 327.437 29.432C329.016 29.432 330.402 29.784 331.597 30.488C332.813 31.1707 333.762 32.1733 334.445 33.496C335.149 34.8187 335.501 36.44 335.501 38.36ZM322.797 38.36C322.797 39.64 322.957 40.7493 323.277 41.688C323.597 42.6053 324.098 43.3093 324.781 43.8C325.464 44.2907 326.338 44.536 327.405 44.536C328.472 44.536 329.346 44.2907 330.029 43.8C330.712 43.3093 331.213 42.6053 331.533 41.688C331.853 40.7493 332.013 39.64 332.013 38.36C332.013 37.0373 331.842 35.928 331.501 35.032C331.181 34.136 330.68 33.4533 329.997 32.984C329.336 32.4933 328.461 32.248 327.373 32.248C325.773 32.248 324.61 32.7813 323.885 33.848C323.16 34.9147 322.797 36.4187 322.797 38.36ZM346.489 29.432C348.558 29.432 350.222 30.1787 351.481 31.672C352.761 33.1653 353.401 35.3947 353.401 38.36C353.401 40.3013 353.113 41.944 352.537 43.288C351.961 44.632 351.15 45.6453 350.105 46.328C349.06 46.9893 347.844 47.32 346.457 47.32C345.582 47.32 344.814 47.2133 344.153 47C343.492 46.7653 342.926 46.4667 342.457 46.104C342.009 45.72 341.614 45.3147 341.273 44.888H341.049C341.113 45.272 341.166 45.7307 341.209 46.264C341.252 46.776 341.273 47.2347 341.273 47.64V54.68H337.881V29.752H340.633L341.113 32.056H341.273C341.614 31.5867 342.02 31.1493 342.489 30.744C342.958 30.3387 343.524 30.0187 344.185 29.784C344.846 29.5493 345.614 29.432 346.489 29.432ZM345.689 32.216C344.622 32.216 343.769 32.4293 343.129 32.856C342.489 33.2613 342.02 33.88 341.721 34.712C341.444 35.5227 341.294 36.5573 341.273 37.816V38.328C341.273 39.6507 341.412 40.7813 341.689 41.72C341.966 42.6373 342.425 43.3413 343.065 43.832C343.726 44.3013 344.622 44.536 345.753 44.536C346.713 44.536 347.492 44.28 348.089 43.768C348.708 43.2347 349.166 42.4987 349.465 41.56C349.764 40.6213 349.913 39.5333 349.913 38.296C349.913 36.4187 349.572 34.936 348.889 33.848C348.206 32.76 347.14 32.216 345.689 32.216ZM362.589 29.432C364.103 29.432 365.405 29.752 366.493 30.392C367.581 31.0107 368.413 31.9067 368.989 33.08C369.586 34.2533 369.885 35.64 369.885 37.24V39.096H358.301C358.343 40.8667 358.802 42.2213 359.677 43.16C360.573 44.0987 361.821 44.568 363.421 44.568C364.53 44.568 365.511 44.472 366.365 44.28C367.239 44.0667 368.135 43.7573 369.053 43.352V46.168C368.199 46.552 367.325 46.84 366.429 47.032C365.554 47.224 364.509 47.32 363.293 47.32C361.629 47.32 360.157 46.9893 358.877 46.328C357.597 45.6667 356.594 44.6853 355.869 43.384C355.165 42.0613 354.813 40.44 354.813 38.52C354.813 36.5787 355.133 34.936 355.773 33.592C356.434 32.248 357.341 31.224 358.493 30.52C359.666 29.7947 361.031 29.432 362.589 29.432ZM362.589 32.056C361.373 32.056 360.391 32.4507 359.645 33.24C358.919 34.0293 358.493 35.1493 358.365 36.6H366.493C366.493 35.704 366.354 34.9147 366.077 34.232C365.799 33.5493 365.373 33.016 364.797 32.632C364.221 32.248 363.485 32.056 362.589 32.056ZM380.709 29.432C381.008 29.432 381.339 29.4533 381.701 29.496C382.064 29.5173 382.363 29.5493 382.597 29.592L382.245 32.76C382.011 32.696 381.733 32.6427 381.413 32.6C381.093 32.5573 380.795 32.536 380.517 32.536C379.877 32.536 379.259 32.664 378.661 32.92C378.085 33.1547 377.563 33.5067 377.093 33.976C376.624 34.424 376.251 34.9787 375.973 35.64C375.717 36.3013 375.589 37.0587 375.589 37.912V47H372.197V29.752H374.885L375.333 32.824H375.461C375.824 32.2053 376.261 31.64 376.773 31.128C377.285 30.616 377.872 30.2107 378.533 29.912C379.195 29.592 379.92 29.432 380.709 29.432Z" fill="#CF2D31"/>
<g clip-path="url(#clip0_1028_163)">
<path d="M509.346 24.9323C509.356 23.637 508.313 22.5936 507.018 22.6039L490.438 22.7359C489.143 22.7462 488.082 23.8064 488.072 25.1017C488.062 26.3969 489.105 27.4404 490.4 27.43L501.328 27.3379L485.305 43.3603C484.381 44.2847 484.369 45.7665 485.279 46.6763C486.189 47.586 487.67 47.5742 488.595 46.6499L504.612 30.6327L504.53 41.5494C504.52 42.8447 505.563 43.8881 506.859 43.8778C508.154 43.8675 509.214 42.8073 509.224 41.512L509.356 24.9322L509.346 24.9323Z" fill="white"/>
</g>
<defs>
<clipPath id="clip0_1028_163">
<rect width="33.0876" height="29.1486" fill="white" transform="translate(475 36.3965) rotate(-45)"/>
</clipPath>
</defs>
</svg>
