<svg width="380" height="60" viewBox="0 0 380 60" fill="none" xmlns="http://www.w3.org/2000/svg">
<rect x="81" y="1" width="298" height="58" rx="29" stroke="#CF2D31" stroke-width="2"/>
<rect width="300" height="60" rx="30" fill="#CF2D31"/>
<path d="M51.632 19.152C53.5307 19.152 55.12 19.3333 56.4 19.696C57.7013 20.0587 58.672 20.656 59.312 21.488C59.9733 22.32 60.304 23.4293 60.304 24.816C60.304 25.712 60.1333 26.512 59.792 27.216C59.472 27.8987 58.9813 28.4747 58.32 28.944C57.68 29.392 56.8907 29.7013 55.952 29.872V30.032C56.912 30.1813 57.776 30.4587 58.544 30.864C59.3333 31.2693 59.952 31.8453 60.4 32.592C60.848 33.3387 61.072 34.3093 61.072 35.504C61.072 36.8907 60.752 38.0747 60.112 39.056C59.472 40.016 58.5547 40.752 57.36 41.264C56.1867 41.7547 54.7787 42 53.136 42H45.104V19.152H51.632ZM52.208 28.88C54.1707 28.88 55.5147 28.5707 56.24 27.952C56.9653 27.312 57.328 26.3733 57.328 25.136C57.328 23.8773 56.88 22.9813 55.984 22.448C55.1093 21.8933 53.7013 21.616 51.76 21.616H47.984V28.88H52.208ZM47.984 31.28V39.568H52.592C54.6187 39.568 56.0267 39.1733 56.816 38.384C57.6053 37.5947 58 36.56 58 35.28C58 34.4693 57.8187 33.7653 57.456 33.168C57.1147 32.5707 56.528 32.112 55.696 31.792C54.8853 31.4507 53.776 31.28 52.368 31.28H47.984ZM77.9485 24.848V42H75.6445L75.2285 39.728H75.1005C74.7378 40.3253 74.2685 40.816 73.6925 41.2C73.1165 41.584 72.4872 41.8613 71.8045 42.032C71.1218 42.224 70.4072 42.32 69.6605 42.32C68.2952 42.32 67.1432 42.1067 66.2045 41.68C65.2872 41.232 64.5938 40.5493 64.1245 39.632C63.6552 38.7147 63.4205 37.5307 63.4205 36.08V24.848H66.2685V35.888C66.2685 37.2533 66.5778 38.2773 67.1965 38.96C67.8152 39.6427 68.7752 39.984 70.0765 39.984C71.3565 39.984 72.3592 39.7493 73.0845 39.28C73.8312 38.7893 74.3538 38.0853 74.6525 37.168C74.9725 36.2293 75.1325 35.0987 75.1325 33.776V24.848H77.9485ZM84.2898 24.848V42H81.4737V24.848H84.2898ZM82.9138 18.416C83.3404 18.416 83.7138 18.5653 84.0338 18.864C84.3751 19.1413 84.5458 19.5893 84.5458 20.208C84.5458 20.8053 84.3751 21.2533 84.0338 21.552C83.7138 21.8507 83.3404 22 82.9138 22C82.4444 22 82.0497 21.8507 81.7297 21.552C81.4097 21.2533 81.2497 20.8053 81.2497 20.208C81.2497 19.5893 81.4097 19.1413 81.7297 18.864C82.0497 18.5653 82.4444 18.416 82.9138 18.416ZM90.6198 42H87.8038V17.68H90.6198V42ZM100.214 42.32C98.0804 42.32 96.3737 41.584 95.0937 40.112C93.8137 38.6187 93.1737 36.4 93.1737 33.456C93.1737 30.512 93.8137 28.2933 95.0937 26.8C96.3951 25.2853 98.1124 24.528 100.246 24.528C101.142 24.528 101.92 24.6453 102.582 24.88C103.243 25.0933 103.819 25.392 104.31 25.776C104.8 26.16 105.216 26.5867 105.558 27.056H105.75C105.728 26.7787 105.686 26.3733 105.622 25.84C105.579 25.2853 105.558 24.848 105.558 24.528V17.68H108.374V42H106.102L105.686 39.696H105.558C105.216 40.1867 104.8 40.6347 104.31 41.04C103.819 41.424 103.232 41.7333 102.55 41.968C101.888 42.2027 101.11 42.32 100.214 42.32ZM100.662 39.984C102.475 39.984 103.744 39.4933 104.47 38.512C105.216 37.5093 105.59 36.0053 105.59 34V33.488C105.59 31.3547 105.238 29.7227 104.534 28.592C103.83 27.44 102.528 26.864 100.63 26.864C99.1151 26.864 97.9737 27.472 97.2057 28.688C96.4591 29.8827 96.0858 31.4933 96.0858 33.52C96.0858 35.568 96.4591 37.1573 97.2057 38.288C97.9737 39.4187 99.1257 39.984 100.662 39.984ZM124.63 30.384L130.582 19.152H133.686L126.07 33.136V42H123.19V33.264L115.574 19.152H118.71L124.63 30.384ZM147.817 33.392C147.817 34.8213 147.625 36.0907 147.241 37.2C146.878 38.288 146.345 39.216 145.641 39.984C144.958 40.752 144.116 41.3387 143.113 41.744C142.132 42.128 141.033 42.32 139.817 42.32C138.686 42.32 137.641 42.128 136.681 41.744C135.721 41.3387 134.889 40.752 134.185 39.984C133.481 39.216 132.926 38.288 132.521 37.2C132.137 36.0907 131.945 34.8213 131.945 33.392C131.945 31.4933 132.265 29.8933 132.905 28.592C133.545 27.2693 134.462 26.2667 135.657 25.584C136.852 24.88 138.27 24.528 139.913 24.528C141.47 24.528 142.836 24.88 144.009 25.584C145.204 26.2667 146.132 27.2693 146.793 28.592C147.476 29.8933 147.817 31.4933 147.817 33.392ZM134.857 33.392C134.857 34.736 135.028 35.9093 135.369 36.912C135.732 37.8933 136.286 38.6507 137.033 39.184C137.78 39.7173 138.729 39.984 139.881 39.984C141.033 39.984 141.982 39.7173 142.729 39.184C143.476 38.6507 144.02 37.8933 144.361 36.912C144.724 35.9093 144.905 34.736 144.905 33.392C144.905 32.0267 144.724 30.864 144.361 29.904C143.998 28.944 143.444 28.208 142.697 27.696C141.972 27.1627 141.022 26.896 139.849 26.896C138.1 26.896 136.83 27.472 136.041 28.624C135.252 29.776 134.857 31.3653 134.857 33.392ZM164.696 24.848V42H162.392L161.976 39.728H161.848C161.485 40.3253 161.016 40.816 160.44 41.2C159.864 41.584 159.235 41.8613 158.552 42.032C157.869 42.224 157.155 42.32 156.408 42.32C155.043 42.32 153.891 42.1067 152.952 41.68C152.035 41.232 151.341 40.5493 150.872 39.632C150.403 38.7147 150.168 37.5307 150.168 36.08V24.848H153.016V35.888C153.016 37.2533 153.325 38.2773 153.944 38.96C154.563 39.6427 155.523 39.984 156.824 39.984C158.104 39.984 159.107 39.7493 159.832 39.28C160.579 38.7893 161.101 38.0853 161.4 37.168C161.72 36.2293 161.88 35.0987 161.88 33.776V24.848H164.696ZM176.221 24.528C176.541 24.528 176.883 24.5493 177.245 24.592C177.629 24.6133 177.96 24.656 178.237 24.72L177.885 27.312C177.608 27.248 177.299 27.1947 176.957 27.152C176.637 27.1093 176.328 27.088 176.029 27.088C175.368 27.088 174.739 27.2267 174.141 27.504C173.544 27.7813 173.011 28.176 172.541 28.688C172.072 29.1787 171.699 29.776 171.421 30.48C171.165 31.184 171.037 31.9733 171.037 32.848V42H168.221V24.848H170.525L170.845 27.984H170.973C171.336 27.344 171.773 26.768 172.285 26.256C172.797 25.7227 173.384 25.3067 174.045 25.008C174.707 24.688 175.432 24.528 176.221 24.528ZM193.529 42H190.649V21.68H183.513V19.152H200.633V21.68H193.529V42ZM206.148 24.528C207.62 24.528 208.878 24.848 209.924 25.488C210.99 26.128 211.801 27.0347 212.356 28.208C212.932 29.36 213.22 30.7147 213.22 32.272V33.968H201.476C201.518 35.9093 202.009 37.392 202.948 38.416C203.908 39.4187 205.241 39.92 206.948 39.92C208.036 39.92 208.996 39.824 209.828 39.632C210.681 39.4187 211.556 39.12 212.452 38.736V41.2C211.577 41.584 210.713 41.8613 209.86 42.032C209.006 42.224 207.993 42.32 206.82 42.32C205.198 42.32 203.758 41.9893 202.5 41.328C201.262 40.6667 200.292 39.6853 199.588 38.384C198.905 37.0613 198.564 35.4507 198.564 33.552C198.564 31.6747 198.873 30.064 199.492 28.72C200.132 27.376 201.017 26.3413 202.148 25.616C203.3 24.8907 204.633 24.528 206.148 24.528ZM206.116 26.832C204.772 26.832 203.705 27.2693 202.916 28.144C202.148 28.9973 201.689 30.192 201.54 31.728H210.276C210.276 30.7467 210.126 29.8933 209.828 29.168C209.529 28.4427 209.07 27.8773 208.452 27.472C207.854 27.0453 207.076 26.832 206.116 26.832ZM222.162 24.56C224.253 24.56 225.8 25.0187 226.802 25.936C227.805 26.8533 228.306 28.3147 228.306 30.32V42H226.258L225.714 39.568H225.586C225.096 40.1867 224.584 40.7093 224.05 41.136C223.538 41.5413 222.941 41.84 222.258 42.032C221.597 42.224 220.786 42.32 219.826 42.32C218.802 42.32 217.874 42.1387 217.042 41.776C216.232 41.4133 215.592 40.8587 215.122 40.112C214.653 39.344 214.418 38.384 214.418 37.232C214.418 35.5253 215.09 34.2133 216.434 33.296C217.778 32.3573 219.848 31.8453 222.642 31.76L225.554 31.664V30.64C225.554 29.2107 225.245 28.2187 224.626 27.664C224.008 27.1093 223.133 26.832 222.002 26.832C221.106 26.832 220.253 26.9707 219.442 27.248C218.632 27.504 217.874 27.8027 217.17 28.144L216.306 26.032C217.053 25.6267 217.938 25.2853 218.962 25.008C219.986 24.7093 221.053 24.56 222.162 24.56ZM222.994 33.712C220.861 33.7973 219.378 34.1387 218.546 34.736C217.736 35.3333 217.33 36.176 217.33 37.264C217.33 38.224 217.618 38.928 218.194 39.376C218.792 39.824 219.549 40.048 220.466 40.048C221.917 40.048 223.122 39.6533 224.082 38.864C225.042 38.0533 225.522 36.816 225.522 35.152V33.616L222.994 33.712ZM250.5 24.528C252.441 24.528 253.892 25.0293 254.852 26.032C255.812 27.0133 256.292 28.6133 256.292 30.832V42H253.508V30.96C253.508 29.616 253.22 28.6027 252.644 27.92C252.089 27.2373 251.214 26.896 250.02 26.896C248.356 26.896 247.161 27.376 246.436 28.336C245.732 29.296 245.38 30.6933 245.38 32.528V42H242.596V30.96C242.596 30.064 242.468 29.3173 242.212 28.72C241.956 28.1013 241.572 27.6427 241.06 27.344C240.548 27.0453 239.886 26.896 239.076 26.896C237.924 26.896 237.017 27.1413 236.356 27.632C235.694 28.1013 235.214 28.7947 234.916 29.712C234.638 30.6293 234.5 31.76 234.5 33.104V42H231.684V24.848H233.956L234.372 27.184H234.532C234.894 26.5867 235.332 26.096 235.844 25.712C236.377 25.3067 236.964 25.008 237.604 24.816C238.244 24.624 238.905 24.528 239.588 24.528C240.91 24.528 242.009 24.7627 242.884 25.232C243.78 25.7013 244.43 26.4267 244.836 27.408H244.996C245.572 26.4267 246.35 25.7013 247.332 25.232C248.334 24.7627 249.39 24.528 250.5 24.528Z" fill="white"/>
<g clip-path="url(#clip0_1028_180)">
<path d="M347.346 19.9323C347.356 18.637 346.313 17.5936 345.018 17.6039L328.438 17.7359C327.143 17.7462 326.082 18.8064 326.072 20.1017C326.062 21.3969 327.105 22.4404 328.4 22.43L339.328 22.3379L323.305 38.3603C322.381 39.2847 322.369 40.7665 323.279 41.6763C324.189 42.586 325.67 42.5742 326.595 41.6499L342.612 25.6327L342.53 36.5494C342.52 37.8447 343.563 38.8881 344.859 38.8778C346.154 38.8675 347.214 37.8073 347.224 36.512L347.356 19.9322L347.346 19.9323Z" fill="#CF2D31"/>
</g>
<defs>
<clipPath id="clip0_1028_180">
<rect width="33.0876" height="29.1486" fill="white" transform="translate(313 31.3965) rotate(-45)"/>
</clipPath>
</defs>
</svg>
