<svg width="755" height="123" viewBox="0 0 755 123" fill="none" xmlns="http://www.w3.org/2000/svg">
<path d="M37.454 32.544C37.454 34.6347 37.006 36.448 36.11 37.984C35.2567 39.52 34.0833 40.7787 32.59 41.76C31.1393 42.7413 29.4753 43.4667 27.598 43.936V44.128C31.2673 44.5547 34.0407 45.664 35.918 47.456C37.838 49.248 38.798 51.6587 38.798 54.688C38.798 57.3333 38.1367 59.7227 36.814 61.856C35.534 63.9467 33.5287 65.6107 30.798 66.848C28.11 68.0427 24.6327 68.64 20.366 68.64C17.8487 68.64 15.502 68.4267 13.326 68C11.15 67.5733 9.102 66.9547 7.182 66.144V57.952C9.14467 58.9333 11.1927 59.68 13.326 60.192C15.502 60.704 17.5073 60.96 19.342 60.96C22.798 60.96 25.2087 60.3627 26.574 59.168C27.982 57.9733 28.686 56.288 28.686 54.112C28.686 52.832 28.366 51.7653 27.726 50.912C27.086 50.016 25.9553 49.3547 24.334 48.928C22.7553 48.4587 20.5367 48.224 17.678 48.224H14.222V40.8H17.742C20.558 40.8 22.6913 40.544 24.142 40.032C25.6353 39.4773 26.638 38.752 27.15 37.856C27.7047 36.9173 27.982 35.8507 27.982 34.656C27.982 33.0347 27.47 31.776 26.446 30.88C25.4647 29.9413 23.8007 29.472 21.454 29.472C20.0033 29.472 18.6807 29.664 17.486 30.048C16.2913 30.3893 15.2033 30.816 14.222 31.328C13.2833 31.84 12.4513 32.3307 11.726 32.8L7.246 26.144C8.44067 25.2907 9.76333 24.5227 11.214 23.84C12.7073 23.1573 14.35 22.624 16.142 22.24C17.934 21.856 19.9393 21.664 22.158 21.664C26.8513 21.664 30.5633 22.624 33.294 24.544C36.0673 26.4213 37.454 29.088 37.454 32.544ZM60.575 38.816C63.3483 38.816 65.823 39.3493 67.999 40.416C70.175 41.4827 71.8817 43.04 73.119 45.088C74.399 47.136 75.039 49.6747 75.039 52.704C75.039 55.9893 74.3563 58.8267 72.991 61.216C71.6257 63.6053 69.5777 65.44 66.847 66.72C64.159 68 60.8097 68.64 56.799 68.64C54.4097 68.64 52.1483 68.4267 50.015 68C47.9243 67.5733 46.0897 66.9547 44.511 66.144V57.824C46.0897 58.6347 47.9883 59.3387 50.207 59.936C52.4257 60.4907 54.5163 60.768 56.479 60.768C58.399 60.768 59.999 60.512 61.279 60C62.6017 59.488 63.6043 58.6987 64.287 57.632C64.9697 56.5653 65.311 55.2 65.311 53.536C65.311 51.2747 64.5643 49.568 63.071 48.416C61.5777 47.2213 59.2737 46.624 56.159 46.624C54.9643 46.624 53.727 46.752 52.447 47.008C51.167 47.2213 50.1003 47.4347 49.247 47.648L45.407 45.6L47.135 22.304H71.903V30.496H55.583L54.751 39.456C55.4763 39.328 56.2443 39.2 57.055 39.072C57.9083 38.9013 59.0817 38.816 60.575 38.816ZM112.24 45.152C112.24 48.8213 111.941 52.1067 111.344 55.008C110.789 57.9093 109.872 60.384 108.592 62.432C107.355 64.4373 105.712 65.9733 103.664 67.04C101.659 68.1067 99.184 68.64 96.24 68.64C92.5707 68.64 89.5627 67.7013 87.216 65.824C84.8693 63.9467 83.12 61.2587 81.968 57.76C80.8587 54.2613 80.304 50.0587 80.304 45.152C80.304 40.2027 80.816 35.9787 81.84 32.48C82.864 28.9813 84.5493 26.2933 86.896 24.416C89.2427 22.5387 92.3573 21.6 96.24 21.6C99.9093 21.6 102.917 22.5387 105.264 24.416C107.611 26.2507 109.36 28.9387 110.512 32.48C111.664 35.9787 112.24 40.2027 112.24 45.152ZM89.904 45.152C89.904 48.608 90.096 51.5093 90.48 53.856C90.864 56.16 91.504 57.9093 92.4 59.104C93.3387 60.256 94.6187 60.832 96.24 60.832C97.8613 60.832 99.12 60.256 100.016 59.104C100.955 57.952 101.616 56.224 102 53.92C102.427 51.5733 102.64 48.6507 102.64 45.152C102.64 41.6533 102.427 38.752 102 36.448C101.616 34.1013 100.955 32.352 100.016 31.2C99.12 30.0053 97.8613 29.408 96.24 29.408C94.6187 29.408 93.3387 30.0053 92.4 31.2C91.504 32.352 90.864 34.1013 90.48 36.448C90.096 38.752 89.904 41.6533 89.904 45.152ZM136.321 42.016H148.417V48.864H136.321V60.896H129.473V48.864H117.377V42.016H129.473V29.856H136.321V42.016ZM8.38356 104.944C8.38356 105.627 8.21823 106.208 7.88756 106.688C7.5569 107.157 7.08223 107.52 6.46356 107.776C5.85556 108.032 5.13556 108.16 4.30356 108.16C3.8769 108.16 3.46623 108.139 3.07156 108.096C2.68756 108.053 2.33556 107.995 2.01556 107.92C1.69556 107.835 1.4129 107.733 1.16756 107.616V106.24C1.55156 106.411 2.02623 106.565 2.59156 106.704C3.16756 106.843 3.75956 106.912 4.36756 106.912C4.9329 106.912 5.40756 106.837 5.79156 106.688C6.17556 106.539 6.46356 106.325 6.65556 106.048C6.84756 105.771 6.94356 105.445 6.94356 105.072C6.94356 104.699 6.86356 104.384 6.70356 104.128C6.54356 103.872 6.26623 103.637 5.87156 103.424C5.48756 103.2 4.9489 102.965 4.25556 102.72C3.7649 102.539 3.3329 102.347 2.95956 102.144C2.5969 101.931 2.2929 101.691 2.04756 101.424C1.80223 101.157 1.61556 100.853 1.48756 100.512C1.37023 100.171 1.31156 99.776 1.31156 99.328C1.31156 98.72 1.46623 98.2027 1.77556 97.776C2.0849 97.3387 2.51156 97.0027 3.05556 96.768C3.61023 96.5333 4.2449 96.416 4.95956 96.416C5.5889 96.416 6.1649 96.4747 6.68756 96.592C7.21023 96.7093 7.6849 96.864 8.11156 97.056L7.66356 98.288C7.2689 98.1173 6.8369 97.9733 6.36756 97.856C5.9089 97.7387 5.4289 97.68 4.92756 97.68C4.44756 97.68 4.04756 97.7493 3.72756 97.888C3.40756 98.0267 3.16756 98.224 3.00756 98.48C2.84756 98.7253 2.76756 99.0133 2.76756 99.344C2.76756 99.728 2.84756 100.048 3.00756 100.304C3.16756 100.56 3.4289 100.789 3.79156 100.992C4.15423 101.195 4.6449 101.413 5.26356 101.648C5.93556 101.893 6.5009 102.16 6.95956 102.448C7.4289 102.725 7.7809 103.061 8.01556 103.456C8.2609 103.851 8.38356 104.347 8.38356 104.944ZM17.9488 103.696C17.9488 104.411 17.8528 105.045 17.6608 105.6C17.4795 106.144 17.2128 106.608 16.8608 106.992C16.5195 107.376 16.0981 107.669 15.5968 107.872C15.1061 108.064 14.5568 108.16 13.9488 108.16C13.3835 108.16 12.8608 108.064 12.3808 107.872C11.9008 107.669 11.4848 107.376 11.1328 106.992C10.7808 106.608 10.5035 106.144 10.3008 105.6C10.1088 105.045 10.0128 104.411 10.0128 103.696C10.0128 102.747 10.1728 101.947 10.4928 101.296C10.8128 100.635 11.2715 100.133 11.8688 99.792C12.4661 99.44 13.1755 99.264 13.9968 99.264C14.7755 99.264 15.4581 99.44 16.0448 99.792C16.6421 100.133 17.1061 100.635 17.4368 101.296C17.7781 101.947 17.9488 102.747 17.9488 103.696ZM11.4688 103.696C11.4688 104.368 11.5541 104.955 11.7248 105.456C11.9061 105.947 12.1835 106.325 12.5568 106.592C12.9301 106.859 13.4048 106.992 13.9808 106.992C14.5568 106.992 15.0315 106.859 15.4048 106.592C15.7781 106.325 16.0501 105.947 16.2208 105.456C16.4021 104.955 16.4928 104.368 16.4928 103.696C16.4928 103.013 16.4021 102.432 16.2208 101.952C16.0395 101.472 15.7621 101.104 15.3888 100.848C15.0261 100.581 14.5515 100.448 13.9648 100.448C13.0901 100.448 12.4555 100.736 12.0608 101.312C11.6661 101.888 11.4688 102.683 11.4688 103.696ZM24.1323 100.512H21.9723V108H20.5643V100.512H19.0603V99.856L20.5643 99.376V98.88C20.5643 98.144 20.671 97.5467 20.8843 97.088C21.1083 96.6293 21.4283 96.2933 21.8443 96.08C22.2603 95.8667 22.7616 95.76 23.3483 95.76C23.6896 95.76 23.999 95.792 24.2763 95.856C24.5643 95.9093 24.8096 95.9733 25.0123 96.048L24.6443 97.152C24.4736 97.0987 24.2763 97.0453 24.0523 96.992C23.8283 96.9387 23.599 96.912 23.3643 96.912C22.895 96.912 22.543 97.072 22.3083 97.392C22.0843 97.7013 21.9723 98.192 21.9723 98.864V99.424H24.1323V100.512ZM28.5443 107.008C28.7576 107.008 28.9763 106.992 29.2003 106.96C29.4243 106.917 29.6056 106.875 29.7443 106.832V107.904C29.595 107.979 29.3816 108.037 29.1043 108.08C28.827 108.133 28.5603 108.16 28.3043 108.16C27.8563 108.16 27.4403 108.085 27.0563 107.936C26.683 107.776 26.379 107.504 26.1443 107.12C25.9096 106.736 25.7923 106.197 25.7923 105.504V100.512H24.5763V99.84L25.8083 99.28L26.3683 97.456H27.2003V99.424H29.6803V100.512H27.2003V105.472C27.2003 105.995 27.323 106.384 27.5683 106.64C27.8243 106.885 28.1496 107.008 28.5443 107.008ZM36.9976 103.152C36.9336 102.928 36.8696 102.709 36.8056 102.496C36.7416 102.272 36.6829 102.064 36.6296 101.872C36.5869 101.669 36.5442 101.483 36.5016 101.312C36.4589 101.141 36.4269 100.997 36.4056 100.88H36.3416C36.3202 100.997 36.2882 101.141 36.2456 101.312C36.2136 101.483 36.1709 101.669 36.1176 101.872C36.0749 102.075 36.0216 102.288 35.9576 102.512C35.9042 102.725 35.8402 102.944 35.7656 103.168L34.2296 107.984H32.6296L30.2776 99.408H31.7336L32.9176 103.984C33.0029 104.293 33.0829 104.608 33.1576 104.928C33.2322 105.237 33.2962 105.536 33.3496 105.824C33.4136 106.101 33.4562 106.341 33.4776 106.544H33.5416C33.5736 106.416 33.6109 106.256 33.6536 106.064C33.6962 105.872 33.7389 105.669 33.7816 105.456C33.8349 105.243 33.8882 105.029 33.9416 104.816C34.0056 104.603 34.0642 104.411 34.1176 104.24L35.6376 99.408H37.1736L38.6456 104.24C38.7202 104.485 38.7949 104.747 38.8696 105.024C38.9549 105.301 39.0296 105.573 39.0936 105.84C39.1576 106.096 39.2002 106.325 39.2216 106.528H39.2856C39.3069 106.347 39.3442 106.123 39.3976 105.856C39.4616 105.579 39.5309 105.28 39.6056 104.96C39.6909 104.629 39.7762 104.304 39.8616 103.984L41.0616 99.408H42.5016L40.1176 107.984H38.4696L36.9976 103.152ZM47.2877 99.28C48.333 99.28 49.1064 99.5093 49.6077 99.968C50.109 100.427 50.3597 101.157 50.3597 102.16V108H49.3357L49.0637 106.784H48.9997C48.7544 107.093 48.4984 107.355 48.2317 107.568C47.9757 107.771 47.677 107.92 47.3357 108.016C47.005 108.112 46.5997 108.16 46.1197 108.16C45.6077 108.16 45.1437 108.069 44.7277 107.888C44.3224 107.707 44.0024 107.429 43.7677 107.056C43.533 106.672 43.4157 106.192 43.4157 105.616C43.4157 104.763 43.7517 104.107 44.4237 103.648C45.0957 103.179 46.1304 102.923 47.5277 102.88L48.9837 102.832V102.32C48.9837 101.605 48.829 101.109 48.5197 100.832C48.2104 100.555 47.773 100.416 47.2077 100.416C46.7597 100.416 46.333 100.485 45.9277 100.624C45.5224 100.752 45.1437 100.901 44.7917 101.072L44.3597 100.016C44.733 99.8133 45.1757 99.6427 45.6877 99.504C46.1997 99.3547 46.733 99.28 47.2877 99.28ZM47.7037 103.856C46.637 103.899 45.8957 104.069 45.4797 104.368C45.0744 104.667 44.8717 105.088 44.8717 105.632C44.8717 106.112 45.0157 106.464 45.3037 106.688C45.6024 106.912 45.981 107.024 46.4397 107.024C47.165 107.024 47.7677 106.827 48.2477 106.432C48.7277 106.027 48.9677 105.408 48.9677 104.576V103.808L47.7037 103.856ZM57.0084 99.264C57.1684 99.264 57.3391 99.2747 57.5204 99.296C57.7124 99.3067 57.8778 99.328 58.0164 99.36L57.8404 100.656C57.7018 100.624 57.5471 100.597 57.3764 100.576C57.2164 100.555 57.0618 100.544 56.9124 100.544C56.5818 100.544 56.2671 100.613 55.9684 100.752C55.6698 100.891 55.4031 101.088 55.1684 101.344C54.9338 101.589 54.7471 101.888 54.6084 102.24C54.4804 102.592 54.4164 102.987 54.4164 103.424V108H53.0084V99.424H54.1604L54.3204 100.992H54.3844C54.5658 100.672 54.7844 100.384 55.0404 100.128C55.2964 99.8613 55.5898 99.6533 55.9204 99.504C56.2511 99.344 56.6138 99.264 57.0084 99.264ZM62.6173 99.264C63.3533 99.264 63.9826 99.424 64.5053 99.744C65.0386 100.064 65.444 100.517 65.7213 101.104C66.0093 101.68 66.1533 102.357 66.1533 103.136V103.984H60.2813C60.3026 104.955 60.548 105.696 61.0173 106.208C61.4973 106.709 62.164 106.96 63.0173 106.96C63.5613 106.96 64.0413 106.912 64.4573 106.816C64.884 106.709 65.3213 106.56 65.7693 106.368V107.6C65.332 107.792 64.9 107.931 64.4733 108.016C64.0466 108.112 63.54 108.16 62.9533 108.16C62.1426 108.16 61.4226 107.995 60.7933 107.664C60.1746 107.333 59.6893 106.843 59.3373 106.192C58.996 105.531 58.8253 104.725 58.8253 103.776C58.8253 102.837 58.98 102.032 59.2893 101.36C59.6093 100.688 60.052 100.171 60.6173 99.808C61.1933 99.4453 61.86 99.264 62.6173 99.264ZM62.6013 100.416C61.9293 100.416 61.396 100.635 61.0013 101.072C60.6173 101.499 60.388 102.096 60.3133 102.864H64.6813C64.6813 102.373 64.6066 101.947 64.4573 101.584C64.308 101.221 64.0786 100.939 63.7693 100.736C63.4706 100.523 63.0813 100.416 62.6013 100.416ZM81.8368 102.176C81.8368 103.456 81.5968 104.528 81.1168 105.392C80.6475 106.256 79.9701 106.907 79.0848 107.344C78.1995 107.781 77.1275 108 75.8688 108H72.6848V96.576H76.2048C77.3568 96.576 78.3541 96.7893 79.1968 97.216C80.0395 97.6427 80.6901 98.272 81.1488 99.104C81.6075 99.9253 81.8368 100.949 81.8368 102.176ZM80.3168 102.224C80.3168 101.211 80.1461 100.379 79.8048 99.728C79.4741 99.0773 78.9835 98.5973 78.3328 98.288C77.6928 97.968 76.9141 97.808 75.9968 97.808H74.1248V106.768H75.6768C77.2235 106.768 78.3808 106.389 79.1488 105.632C79.9275 104.864 80.3168 103.728 80.3168 102.224ZM87.4923 99.264C88.2283 99.264 88.8576 99.424 89.3803 99.744C89.9136 100.064 90.319 100.517 90.5963 101.104C90.8843 101.68 91.0283 102.357 91.0283 103.136V103.984H85.1563C85.1776 104.955 85.423 105.696 85.8923 106.208C86.3723 106.709 87.039 106.96 87.8923 106.96C88.4363 106.96 88.9163 106.912 89.3323 106.816C89.759 106.709 90.1963 106.56 90.6443 106.368V107.6C90.207 107.792 89.775 107.931 89.3483 108.016C88.9216 108.112 88.415 108.16 87.8283 108.16C87.0176 108.16 86.2976 107.995 85.6683 107.664C85.0496 107.333 84.5643 106.843 84.2123 106.192C83.871 105.531 83.7003 104.725 83.7003 103.776C83.7003 102.837 83.855 102.032 84.1643 101.36C84.4843 100.688 84.927 100.171 85.4923 99.808C86.0683 99.4453 86.735 99.264 87.4923 99.264ZM87.4763 100.416C86.8043 100.416 86.271 100.635 85.8763 101.072C85.4923 101.499 85.263 102.096 85.1883 102.864H89.5563C89.5563 102.373 89.4816 101.947 89.3323 101.584C89.183 101.221 88.9536 100.939 88.6443 100.736C88.3456 100.523 87.9563 100.416 87.4763 100.416ZM94.7871 108L91.5391 99.424H93.0431L94.8671 104.48C94.9524 104.715 95.0431 104.976 95.1391 105.264C95.2351 105.552 95.3204 105.829 95.3951 106.096C95.4697 106.352 95.5231 106.571 95.5551 106.752H95.6191C95.6617 106.571 95.7204 106.347 95.7951 106.08C95.8804 105.813 95.9711 105.536 96.0671 105.248C96.1737 104.96 96.2644 104.704 96.3391 104.48L98.1631 99.424H99.6671L96.4031 108H94.7871ZM104.336 99.264C105.072 99.264 105.701 99.424 106.224 99.744C106.757 100.064 107.163 100.517 107.44 101.104C107.728 101.68 107.872 102.357 107.872 103.136V103.984H102C102.021 104.955 102.267 105.696 102.736 106.208C103.216 106.709 103.883 106.96 104.736 106.96C105.28 106.96 105.76 106.912 106.176 106.816C106.603 106.709 107.04 106.56 107.488 106.368V107.6C107.051 107.792 106.619 107.931 106.192 108.016C105.765 108.112 105.259 108.16 104.672 108.16C103.861 108.16 103.141 107.995 102.512 107.664C101.893 107.333 101.408 106.843 101.056 106.192C100.715 105.531 100.544 104.725 100.544 103.776C100.544 102.837 100.699 102.032 101.008 101.36C101.328 100.688 101.771 100.171 102.336 99.808C102.912 99.4453 103.579 99.264 104.336 99.264ZM104.32 100.416C103.648 100.416 103.115 100.635 102.72 101.072C102.336 101.499 102.107 102.096 102.032 102.864H106.4C106.4 102.373 106.325 101.947 106.176 101.584C106.027 101.221 105.797 100.939 105.488 100.736C105.189 100.523 104.8 100.416 104.32 100.416ZM111.463 108H110.055V95.84H111.463V108ZM121.636 103.696C121.636 104.411 121.54 105.045 121.348 105.6C121.167 106.144 120.9 106.608 120.548 106.992C120.207 107.376 119.786 107.669 119.284 107.872C118.794 108.064 118.244 108.16 117.636 108.16C117.071 108.16 116.548 108.064 116.068 107.872C115.588 107.669 115.172 107.376 114.82 106.992C114.468 106.608 114.191 106.144 113.988 105.6C113.796 105.045 113.7 104.411 113.7 103.696C113.7 102.747 113.86 101.947 114.18 101.296C114.5 100.635 114.959 100.133 115.556 99.792C116.154 99.44 116.863 99.264 117.684 99.264C118.463 99.264 119.146 99.44 119.732 99.792C120.33 100.133 120.794 100.635 121.124 101.296C121.466 101.947 121.636 102.747 121.636 103.696ZM115.156 103.696C115.156 104.368 115.242 104.955 115.412 105.456C115.594 105.947 115.871 106.325 116.244 106.592C116.618 106.859 117.092 106.992 117.668 106.992C118.244 106.992 118.719 106.859 119.092 106.592C119.466 106.325 119.738 105.947 119.908 105.456C120.09 104.955 120.18 104.368 120.18 103.696C120.18 103.013 120.09 102.432 119.908 101.952C119.727 101.472 119.45 101.104 119.076 100.848C118.714 100.581 118.239 100.448 117.652 100.448C116.778 100.448 116.143 100.736 115.748 101.312C115.354 101.888 115.156 102.683 115.156 103.696ZM127.948 99.264C129.004 99.264 129.852 99.632 130.492 100.368C131.142 101.104 131.468 102.213 131.468 103.696C131.468 104.667 131.318 105.488 131.02 106.16C130.732 106.821 130.321 107.323 129.788 107.664C129.265 107.995 128.646 108.16 127.932 108.16C127.494 108.16 127.105 108.101 126.764 107.984C126.422 107.867 126.129 107.717 125.884 107.536C125.649 107.344 125.446 107.136 125.276 106.912H125.18C125.201 107.093 125.222 107.323 125.244 107.6C125.265 107.877 125.276 108.117 125.276 108.32V111.84H123.868V99.424H125.02L125.212 100.592H125.276C125.446 100.347 125.649 100.123 125.884 99.92C126.129 99.7173 126.417 99.5573 126.748 99.44C127.089 99.3227 127.489 99.264 127.948 99.264ZM127.692 100.448C127.116 100.448 126.652 100.56 126.3 100.784C125.948 100.997 125.692 101.323 125.532 101.76C125.372 102.197 125.286 102.752 125.276 103.424V103.696C125.276 104.4 125.35 104.997 125.5 105.488C125.649 105.979 125.9 106.352 126.252 106.608C126.614 106.864 127.105 106.992 127.724 106.992C128.246 106.992 128.673 106.848 129.004 106.56C129.345 106.272 129.596 105.883 129.756 105.392C129.926 104.891 130.012 104.32 130.012 103.68C130.012 102.699 129.82 101.915 129.436 101.328C129.062 100.741 128.481 100.448 127.692 100.448ZM137.024 99.264C137.76 99.264 138.389 99.424 138.912 99.744C139.445 100.064 139.85 100.517 140.128 101.104C140.416 101.68 140.56 102.357 140.56 103.136V103.984H134.688C134.709 104.955 134.954 105.696 135.424 106.208C135.904 106.709 136.57 106.96 137.424 106.96C137.968 106.96 138.448 106.912 138.864 106.816C139.29 106.709 139.728 106.56 140.176 106.368V107.6C139.738 107.792 139.306 107.931 138.88 108.016C138.453 108.112 137.946 108.16 137.36 108.16C136.549 108.16 135.829 107.995 135.2 107.664C134.581 107.333 134.096 106.843 133.744 106.192C133.402 105.531 133.232 104.725 133.232 103.776C133.232 102.837 133.386 102.032 133.696 101.36C134.016 100.688 134.458 100.171 135.024 99.808C135.6 99.4453 136.266 99.264 137.024 99.264ZM137.008 100.416C136.336 100.416 135.802 100.635 135.408 101.072C135.024 101.499 134.794 102.096 134.72 102.864H139.088C139.088 102.373 139.013 101.947 138.864 101.584C138.714 101.221 138.485 100.939 138.176 100.736C137.877 100.523 137.488 100.416 137.008 100.416ZM146.743 99.264C146.903 99.264 147.073 99.2747 147.255 99.296C147.447 99.3067 147.612 99.328 147.751 99.36L147.575 100.656C147.436 100.624 147.281 100.597 147.111 100.576C146.951 100.555 146.796 100.544 146.647 100.544C146.316 100.544 146.001 100.613 145.703 100.752C145.404 100.891 145.137 101.088 144.903 101.344C144.668 101.589 144.481 101.888 144.343 102.24C144.215 102.592 144.151 102.987 144.151 103.424V108H142.743V99.424H143.895L144.055 100.992H144.119C144.3 100.672 144.519 100.384 144.775 100.128C145.031 99.8613 145.324 99.6533 145.655 99.504C145.985 99.344 146.348 99.264 146.743 99.264ZM154.936 105.632C154.936 106.187 154.798 106.651 154.52 107.024C154.243 107.397 153.848 107.68 153.336 107.872C152.824 108.064 152.216 108.16 151.512 108.16C150.915 108.16 150.398 108.112 149.96 108.016C149.534 107.92 149.155 107.787 148.824 107.616V106.336C149.166 106.507 149.576 106.667 150.056 106.816C150.547 106.955 151.043 107.024 151.544 107.024C152.259 107.024 152.776 106.912 153.096 106.688C153.416 106.453 153.576 106.144 153.576 105.76C153.576 105.547 153.518 105.355 153.4 105.184C153.283 105.013 153.07 104.843 152.76 104.672C152.462 104.501 152.03 104.309 151.464 104.096C150.91 103.883 150.435 103.669 150.04 103.456C149.646 103.243 149.342 102.987 149.128 102.688C148.915 102.389 148.808 102.005 148.808 101.536C148.808 100.811 149.102 100.251 149.688 99.856C150.286 99.4613 151.064 99.264 152.024 99.264C152.547 99.264 153.032 99.3173 153.48 99.424C153.939 99.52 154.366 99.6587 154.76 99.84L154.28 100.96C154.046 100.853 153.795 100.763 153.528 100.688C153.272 100.603 153.011 100.539 152.744 100.496C152.478 100.443 152.206 100.416 151.928 100.416C151.352 100.416 150.91 100.512 150.6 100.704C150.302 100.885 150.152 101.136 150.152 101.456C150.152 101.691 150.222 101.893 150.36 102.064C150.499 102.224 150.728 102.384 151.048 102.544C151.379 102.693 151.816 102.875 152.36 103.088C152.904 103.291 153.368 103.499 153.752 103.712C154.136 103.925 154.43 104.187 154.632 104.496C154.835 104.795 154.936 105.173 154.936 105.632Z" fill="white"/>
<path d="M417.746 68H385.81V61.28L397.266 49.696C399.57 47.3067 401.426 45.3227 402.834 43.744C404.242 42.1227 405.266 40.672 405.906 39.392C406.546 38.0693 406.866 36.6613 406.866 35.168C406.866 33.3333 406.354 31.968 405.33 31.072C404.349 30.176 403.005 29.728 401.298 29.728C399.549 29.728 397.842 30.1333 396.178 30.944C394.514 31.7547 392.765 32.9067 390.93 34.4L385.682 28.192C387.005 27.04 388.391 25.9733 389.842 24.992C391.335 24.0107 393.042 23.2213 394.962 22.624C396.925 21.984 399.271 21.664 402.002 21.664C404.989 21.664 407.549 22.2187 409.682 23.328C411.858 24.3947 413.522 25.8667 414.674 27.744C415.869 29.5787 416.466 31.6693 416.466 34.016C416.466 35.936 416.167 37.7067 415.57 39.328C415.015 40.9493 414.183 42.528 413.074 44.064C412.007 45.5573 410.685 47.1147 409.106 48.736C407.527 50.3147 405.735 52.0427 403.73 53.92L397.842 59.424V59.872H417.746V68ZM454.115 45.152C454.115 48.8213 453.816 52.1067 453.219 55.008C452.664 57.9093 451.747 60.384 450.467 62.432C449.23 64.4373 447.587 65.9733 445.539 67.04C443.534 68.1067 441.059 68.64 438.115 68.64C434.446 68.64 431.438 67.7013 429.091 65.824C426.744 63.9467 424.995 61.2587 423.843 57.76C422.734 54.2613 422.179 50.0587 422.179 45.152C422.179 40.2027 422.691 35.9787 423.715 32.48C424.739 28.9813 426.424 26.2933 428.771 24.416C431.118 22.5387 434.232 21.6 438.115 21.6C441.784 21.6 444.792 22.5387 447.139 24.416C449.486 26.2507 451.235 28.9387 452.387 32.48C453.539 35.9787 454.115 40.2027 454.115 45.152ZM431.779 45.152C431.779 48.608 431.971 51.5093 432.355 53.856C432.739 56.16 433.379 57.9093 434.275 59.104C435.214 60.256 436.494 60.832 438.115 60.832C439.736 60.832 440.995 60.256 441.891 59.104C442.83 57.952 443.491 56.224 443.875 53.92C444.302 51.5733 444.515 48.6507 444.515 45.152C444.515 41.6533 444.302 38.752 443.875 36.448C443.491 34.1013 442.83 32.352 441.891 31.2C440.995 30.0053 439.736 29.408 438.115 29.408C436.494 29.408 435.214 30.0053 434.275 31.2C433.379 32.352 432.739 34.1013 432.355 36.448C431.971 38.752 431.779 41.6533 431.779 45.152ZM490.74 45.152C490.74 48.8213 490.441 52.1067 489.844 55.008C489.289 57.9093 488.372 60.384 487.092 62.432C485.855 64.4373 484.212 65.9733 482.164 67.04C480.159 68.1067 477.684 68.64 474.74 68.64C471.071 68.64 468.063 67.7013 465.716 65.824C463.369 63.9467 461.62 61.2587 460.468 57.76C459.359 54.2613 458.804 50.0587 458.804 45.152C458.804 40.2027 459.316 35.9787 460.34 32.48C461.364 28.9813 463.049 26.2933 465.396 24.416C467.743 22.5387 470.857 21.6 474.74 21.6C478.409 21.6 481.417 22.5387 483.764 24.416C486.111 26.2507 487.86 28.9387 489.012 32.48C490.164 35.9787 490.74 40.2027 490.74 45.152ZM468.404 45.152C468.404 48.608 468.596 51.5093 468.98 53.856C469.364 56.16 470.004 57.9093 470.9 59.104C471.839 60.256 473.119 60.832 474.74 60.832C476.361 60.832 477.62 60.256 478.516 59.104C479.455 57.952 480.116 56.224 480.5 53.92C480.927 51.5733 481.14 48.6507 481.14 45.152C481.14 41.6533 480.927 38.752 480.5 36.448C480.116 34.1013 479.455 32.352 478.516 31.2C477.62 30.0053 476.361 29.408 474.74 29.408C473.119 29.408 471.839 30.0053 470.9 31.2C470.004 32.352 469.364 34.1013 468.98 36.448C468.596 38.752 468.404 41.6533 468.404 45.152ZM514.821 42.016H526.917V48.864H514.821V60.896H507.973V48.864H495.877V42.016H507.973V29.856H514.821V42.016ZM405.188 104.944C405.188 105.627 405.023 106.208 404.692 106.688C404.362 107.157 403.887 107.52 403.268 107.776C402.66 108.032 401.94 108.16 401.108 108.16C400.682 108.16 400.271 108.139 399.876 108.096C399.492 108.053 399.14 107.995 398.82 107.92C398.5 107.835 398.218 107.733 397.972 107.616V106.24C398.356 106.411 398.831 106.565 399.396 106.704C399.972 106.843 400.564 106.912 401.172 106.912C401.738 106.912 402.212 106.837 402.596 106.688C402.98 106.539 403.268 106.325 403.46 106.048C403.652 105.771 403.748 105.445 403.748 105.072C403.748 104.699 403.668 104.384 403.508 104.128C403.348 103.872 403.071 103.637 402.676 103.424C402.292 103.2 401.754 102.965 401.06 102.72C400.57 102.539 400.138 102.347 399.764 102.144C399.402 101.931 399.098 101.691 398.852 101.424C398.607 101.157 398.42 100.853 398.292 100.512C398.175 100.171 398.116 99.776 398.116 99.328C398.116 98.72 398.271 98.2027 398.58 97.776C398.89 97.3387 399.316 97.0027 399.86 96.768C400.415 96.5333 401.05 96.416 401.764 96.416C402.394 96.416 402.97 96.4747 403.492 96.592C404.015 96.7093 404.49 96.864 404.916 97.056L404.468 98.288C404.074 98.1173 403.642 97.9733 403.172 97.856C402.714 97.7387 402.234 97.68 401.732 97.68C401.252 97.68 400.852 97.7493 400.532 97.888C400.212 98.0267 399.972 98.224 399.812 98.48C399.652 98.7253 399.572 99.0133 399.572 99.344C399.572 99.728 399.652 100.048 399.812 100.304C399.972 100.56 400.234 100.789 400.596 100.992C400.959 101.195 401.45 101.413 402.068 101.648C402.74 101.893 403.306 102.16 403.764 102.448C404.234 102.725 404.586 103.061 404.82 103.456C405.066 103.851 405.188 104.347 405.188 104.944ZM410.546 99.28C411.591 99.28 412.364 99.5093 412.866 99.968C413.367 100.427 413.618 101.157 413.618 102.16V108H412.594L412.322 106.784H412.258C412.012 107.093 411.756 107.355 411.49 107.568C411.234 107.771 410.935 107.92 410.594 108.016C410.263 108.112 409.858 108.16 409.378 108.16C408.866 108.16 408.402 108.069 407.986 107.888C407.58 107.707 407.26 107.429 407.026 107.056C406.791 106.672 406.674 106.192 406.674 105.616C406.674 104.763 407.01 104.107 407.682 103.648C408.354 103.179 409.388 102.923 410.786 102.88L412.242 102.832V102.32C412.242 101.605 412.087 101.109 411.778 100.832C411.468 100.555 411.031 100.416 410.466 100.416C410.018 100.416 409.591 100.485 409.186 100.624C408.78 100.752 408.402 100.901 408.049 101.072L407.618 100.016C407.991 99.8133 408.434 99.6427 408.946 99.504C409.458 99.3547 409.991 99.28 410.546 99.28ZM410.962 103.856C409.895 103.899 409.154 104.069 408.738 104.368C408.332 104.667 408.13 105.088 408.13 105.632C408.13 106.112 408.274 106.464 408.562 106.688C408.86 106.912 409.239 107.024 409.698 107.024C410.423 107.024 411.026 106.827 411.506 106.432C411.986 106.027 412.226 105.408 412.226 104.576V103.808L410.962 103.856ZM419.13 107.008C419.344 107.008 419.562 106.992 419.786 106.96C420.01 106.917 420.192 106.875 420.33 106.832V107.904C420.181 107.979 419.968 108.037 419.69 108.08C419.413 108.133 419.146 108.16 418.89 108.16C418.442 108.16 418.026 108.085 417.642 107.936C417.269 107.776 416.965 107.504 416.73 107.12C416.496 106.736 416.378 106.197 416.378 105.504V100.512H415.162V99.84L416.394 99.28L416.954 97.456H417.786V99.424H420.266V100.512H417.786V105.472C417.786 105.995 417.909 106.384 418.154 106.64C418.41 106.885 418.736 107.008 419.13 107.008ZM423.456 99.424V108H422.048V99.424H423.456ZM422.768 96.208C422.981 96.208 423.168 96.2827 423.328 96.432C423.498 96.5707 423.584 96.7947 423.584 97.104C423.584 97.4027 423.498 97.6267 423.328 97.776C423.168 97.9253 422.981 98 422.768 98C422.533 98 422.336 97.9253 422.176 97.776C422.016 97.6267 421.936 97.4027 421.936 97.104C421.936 96.7947 422.016 96.5707 422.176 96.432C422.336 96.2827 422.533 96.208 422.768 96.208ZM431.757 105.632C431.757 106.187 431.618 106.651 431.341 107.024C431.063 107.397 430.669 107.68 430.157 107.872C429.645 108.064 429.037 108.16 428.333 108.16C427.735 108.16 427.218 108.112 426.781 108.016C426.354 107.92 425.975 107.787 425.645 107.616V106.336C425.986 106.507 426.397 106.667 426.877 106.816C427.367 106.955 427.863 107.024 428.365 107.024C429.079 107.024 429.597 106.912 429.917 106.688C430.237 106.453 430.397 106.144 430.397 105.76C430.397 105.547 430.338 105.355 430.221 105.184C430.103 105.013 429.89 104.843 429.581 104.672C429.282 104.501 428.85 104.309 428.285 104.096C427.73 103.883 427.255 103.669 426.861 103.456C426.466 103.243 426.162 102.987 425.949 102.688C425.735 102.389 425.629 102.005 425.629 101.536C425.629 100.811 425.922 100.251 426.509 99.856C427.106 99.4613 427.885 99.264 428.845 99.264C429.367 99.264 429.853 99.3173 430.301 99.424C430.759 99.52 431.186 99.6587 431.581 99.84L431.101 100.96C430.866 100.853 430.615 100.763 430.349 100.688C430.093 100.603 429.831 100.539 429.565 100.496C429.298 100.443 429.026 100.416 428.749 100.416C428.173 100.416 427.73 100.512 427.421 100.704C427.122 100.885 426.973 101.136 426.973 101.456C426.973 101.691 427.042 101.893 427.181 102.064C427.319 102.224 427.549 102.384 427.869 102.544C428.199 102.693 428.637 102.875 429.181 103.088C429.725 103.291 430.189 103.499 430.573 103.712C430.957 103.925 431.25 104.187 431.453 104.496C431.655 104.795 431.757 105.173 431.757 105.632ZM437.781 100.512H435.621V108H434.213V100.512H432.709V99.856L434.213 99.376V98.88C434.213 98.144 434.319 97.5467 434.533 97.088C434.757 96.6293 435.077 96.2933 435.493 96.08C435.909 95.8667 436.41 95.76 436.997 95.76C437.338 95.76 437.647 95.792 437.925 95.856C438.213 95.9093 438.458 95.9733 438.661 96.048L438.293 97.152C438.122 97.0987 437.925 97.0453 437.701 96.992C437.477 96.9387 437.247 96.912 437.013 96.912C436.543 96.912 436.191 97.072 435.957 97.392C435.733 97.7013 435.621 98.192 435.621 98.864V99.424H437.781V100.512ZM440.741 99.424V108H439.333V99.424H440.741ZM440.053 96.208C440.266 96.208 440.453 96.2827 440.613 96.432C440.783 96.5707 440.869 96.7947 440.869 97.104C440.869 97.4027 440.783 97.6267 440.613 97.776C440.453 97.9253 440.266 98 440.053 98C439.818 98 439.621 97.9253 439.461 97.776C439.301 97.6267 439.221 97.4027 439.221 97.104C439.221 96.7947 439.301 96.5707 439.461 96.432C439.621 96.2827 439.818 96.208 440.053 96.208ZM446.766 99.264C447.502 99.264 448.131 99.424 448.654 99.744C449.187 100.064 449.592 100.517 449.87 101.104C450.158 101.68 450.302 102.357 450.302 103.136V103.984H444.43C444.451 104.955 444.696 105.696 445.166 106.208C445.646 106.709 446.312 106.96 447.166 106.96C447.71 106.96 448.19 106.912 448.606 106.816C449.032 106.709 449.47 106.56 449.918 106.368V107.6C449.48 107.792 449.048 107.931 448.622 108.016C448.195 108.112 447.688 108.16 447.102 108.16C446.291 108.16 445.571 107.995 444.942 107.664C444.323 107.333 443.838 106.843 443.486 106.192C443.144 105.531 442.974 104.725 442.974 103.776C442.974 102.837 443.128 102.032 443.438 101.36C443.758 100.688 444.2 100.171 444.766 99.808C445.342 99.4453 446.008 99.264 446.766 99.264ZM446.75 100.416C446.078 100.416 445.544 100.635 445.15 101.072C444.766 101.499 444.536 102.096 444.462 102.864H448.83C448.83 102.373 448.755 101.947 448.606 101.584C448.456 101.221 448.227 100.939 447.918 100.736C447.619 100.523 447.23 100.416 446.75 100.416ZM455.525 108.16C454.458 108.16 453.605 107.792 452.965 107.056C452.325 106.309 452.005 105.2 452.005 103.728C452.005 102.256 452.325 101.147 452.965 100.4C453.616 99.6427 454.474 99.264 455.541 99.264C455.989 99.264 456.378 99.3227 456.709 99.44C457.04 99.5467 457.328 99.696 457.573 99.888C457.818 100.08 458.026 100.293 458.197 100.528H458.293C458.282 100.389 458.261 100.187 458.229 99.92C458.208 99.6427 458.197 99.424 458.197 99.264V95.84H459.605V108H458.469L458.261 106.848H458.197C458.026 107.093 457.818 107.317 457.573 107.52C457.328 107.712 457.034 107.867 456.693 107.984C456.362 108.101 455.973 108.16 455.525 108.16ZM455.749 106.992C456.656 106.992 457.29 106.747 457.653 106.256C458.026 105.755 458.213 105.003 458.213 104V103.744C458.213 102.677 458.037 101.861 457.685 101.296C457.333 100.72 456.682 100.432 455.733 100.432C454.976 100.432 454.405 100.736 454.021 101.344C453.648 101.941 453.461 102.747 453.461 103.76C453.461 104.784 453.648 105.579 454.021 106.144C454.405 106.709 454.981 106.992 455.749 106.992ZM471.573 97.68C470.965 97.68 470.416 97.7867 469.925 98C469.434 98.2027 469.018 98.5067 468.677 98.912C468.336 99.3067 468.074 99.792 467.893 100.368C467.712 100.933 467.621 101.573 467.621 102.288C467.621 103.227 467.765 104.043 468.053 104.736C468.352 105.429 468.789 105.963 469.365 106.336C469.952 106.709 470.682 106.896 471.557 106.896C472.058 106.896 472.533 106.853 472.981 106.768C473.429 106.683 473.866 106.576 474.293 106.448V107.696C473.866 107.856 473.424 107.973 472.965 108.048C472.517 108.123 471.978 108.16 471.349 108.16C470.186 108.16 469.216 107.92 468.437 107.44C467.658 106.96 467.072 106.277 466.677 105.392C466.293 104.507 466.101 103.467 466.101 102.272C466.101 101.408 466.218 100.619 466.453 99.904C466.698 99.1893 467.05 98.5707 467.509 98.048C467.978 97.5253 468.554 97.1253 469.237 96.848C469.92 96.56 470.704 96.416 471.589 96.416C472.176 96.416 472.741 96.4747 473.285 96.592C473.829 96.7093 474.314 96.8747 474.741 97.088L474.165 98.304C473.813 98.144 473.418 98 472.981 97.872C472.554 97.744 472.085 97.68 471.573 97.68ZM478.002 108H476.594V95.84H478.002V108ZM482.127 99.424V108H480.719V99.424H482.127ZM481.439 96.208C481.653 96.208 481.839 96.2827 481.999 96.432C482.17 96.5707 482.255 96.7947 482.255 97.104C482.255 97.4027 482.17 97.6267 481.999 97.776C481.839 97.9253 481.653 98 481.439 98C481.205 98 481.007 97.9253 480.847 97.776C480.687 97.6267 480.607 97.4027 480.607 97.104C480.607 96.7947 480.687 96.5707 480.847 96.432C481.007 96.2827 481.205 96.208 481.439 96.208ZM488.156 99.264C488.892 99.264 489.522 99.424 490.044 99.744C490.578 100.064 490.983 100.517 491.26 101.104C491.548 101.68 491.692 102.357 491.692 103.136V103.984H485.82C485.842 104.955 486.087 105.696 486.556 106.208C487.036 106.709 487.703 106.96 488.556 106.96C489.1 106.96 489.58 106.912 489.996 106.816C490.423 106.709 490.86 106.56 491.308 106.368V107.6C490.871 107.792 490.439 107.931 490.012 108.016C489.586 108.112 489.079 108.16 488.492 108.16C487.682 108.16 486.962 107.995 486.332 107.664C485.714 107.333 485.228 106.843 484.876 106.192C484.535 105.531 484.364 104.725 484.364 103.776C484.364 102.837 484.519 102.032 484.828 101.36C485.148 100.688 485.591 100.171 486.156 99.808C486.732 99.4453 487.399 99.264 488.156 99.264ZM488.14 100.416C487.468 100.416 486.935 100.635 486.54 101.072C486.156 101.499 485.927 102.096 485.852 102.864H490.22C490.22 102.373 490.146 101.947 489.996 101.584C489.847 101.221 489.618 100.939 489.308 100.736C489.01 100.523 488.62 100.416 488.14 100.416ZM498.004 99.264C499.028 99.264 499.801 99.5147 500.324 100.016C500.846 100.507 501.108 101.307 501.108 102.416V108H499.716V102.512C499.716 101.819 499.561 101.301 499.252 100.96C498.942 100.619 498.457 100.448 497.796 100.448C496.846 100.448 496.19 100.715 495.828 101.248C495.465 101.781 495.284 102.549 495.284 103.552V108H493.876V99.424H495.012L495.22 100.592H495.3C495.492 100.293 495.726 100.048 496.004 99.856C496.292 99.6533 496.606 99.504 496.948 99.408C497.289 99.312 497.641 99.264 498.004 99.264ZM506.63 107.008C506.844 107.008 507.062 106.992 507.286 106.96C507.51 106.917 507.692 106.875 507.83 106.832V107.904C507.681 107.979 507.468 108.037 507.19 108.08C506.913 108.133 506.646 108.16 506.39 108.16C505.942 108.16 505.526 108.085 505.142 107.936C504.769 107.776 504.465 107.504 504.23 107.12C503.996 106.736 503.878 106.197 503.878 105.504V100.512H502.662V99.84L503.894 99.28L504.454 97.456H505.286V99.424H507.766V100.512H505.286V105.472C505.286 105.995 505.409 106.384 505.654 106.64C505.91 106.885 506.236 107.008 506.63 107.008ZM515.132 105.632C515.132 106.187 514.993 106.651 514.716 107.024C514.438 107.397 514.044 107.68 513.532 107.872C513.02 108.064 512.412 108.16 511.708 108.16C511.11 108.16 510.593 108.112 510.156 108.016C509.729 107.92 509.35 107.787 509.02 107.616V106.336C509.361 106.507 509.772 106.667 510.252 106.816C510.742 106.955 511.238 107.024 511.74 107.024C512.454 107.024 512.972 106.912 513.292 106.688C513.612 106.453 513.772 106.144 513.772 105.76C513.772 105.547 513.713 105.355 513.596 105.184C513.478 105.013 513.265 104.843 512.956 104.672C512.657 104.501 512.225 104.309 511.66 104.096C511.105 103.883 510.63 103.669 510.236 103.456C509.841 103.243 509.537 102.987 509.324 102.688C509.11 102.389 509.004 102.005 509.004 101.536C509.004 100.811 509.297 100.251 509.884 99.856C510.481 99.4613 511.26 99.264 512.22 99.264C512.742 99.264 513.228 99.3173 513.676 99.424C514.134 99.52 514.561 99.6587 514.956 99.84L514.476 100.96C514.241 100.853 513.99 100.763 513.724 100.688C513.468 100.603 513.206 100.539 512.94 100.496C512.673 100.443 512.401 100.416 512.124 100.416C511.548 100.416 511.105 100.512 510.796 100.704C510.497 100.885 510.348 101.136 510.348 101.456C510.348 101.691 510.417 101.893 510.556 102.064C510.694 102.224 510.924 102.384 511.244 102.544C511.574 102.693 512.012 102.875 512.556 103.088C513.1 103.291 513.564 103.499 513.948 103.712C514.332 103.925 514.625 104.187 514.828 104.496C515.03 104.795 515.132 105.173 515.132 105.632Z" fill="white"/>
<path d="M586.489 65.44C583.716 65.3547 581.241 65.0987 579.065 64.672C576.889 64.2027 574.905 63.5627 573.113 62.752V54.496C574.862 55.3493 576.974 56.1387 579.449 56.864C581.924 57.5467 584.27 57.952 586.489 58.08V48.416C584.014 47.4347 581.902 46.496 580.153 45.6C578.446 44.704 577.06 43.7653 575.993 42.784C574.969 41.76 574.222 40.6507 573.753 39.456C573.284 38.2187 573.049 36.8107 573.049 35.232C573.049 33.0987 573.604 31.264 574.713 29.728C575.865 28.1493 577.444 26.8907 579.449 25.952C581.497 25.0133 583.844 24.4373 586.489 24.224V19.424H590.777V24.096C593.166 24.1813 595.406 24.4587 597.497 24.928C599.63 25.3973 601.7 26.08 603.705 26.976L600.761 34.272C599.054 33.5467 597.326 32.992 595.577 32.608C593.87 32.224 592.27 31.968 590.777 31.84V41.056C593.081 41.9093 595.278 42.848 597.369 43.872C599.46 44.8533 601.145 46.112 602.425 47.648C603.748 49.184 604.409 51.2107 604.409 53.728C604.409 56.8427 603.278 59.4453 601.017 61.536C598.756 63.6267 595.342 64.8853 590.777 65.312V71.712H586.489V65.44ZM590.777 57.888C592.228 57.632 593.294 57.2053 593.977 56.608C594.66 55.968 595.001 55.1573 595.001 54.176C595.001 53.5787 594.83 53.0667 594.489 52.64C594.19 52.1707 593.721 51.744 593.081 51.36C592.484 50.9333 591.716 50.5067 590.777 50.08V57.888ZM586.489 31.968C585.636 32.096 584.91 32.3093 584.313 32.608C583.716 32.864 583.246 33.2267 582.905 33.696C582.606 34.1227 582.457 34.6347 582.457 35.232C582.457 35.8293 582.585 36.3627 582.841 36.832C583.14 37.2587 583.588 37.6853 584.185 38.112C584.782 38.496 585.55 38.9013 586.489 39.328V31.968ZM626.122 38.816C628.895 38.816 631.37 39.3493 633.546 40.416C635.722 41.4827 637.429 43.04 638.666 45.088C639.946 47.136 640.586 49.6747 640.586 52.704C640.586 55.9893 639.903 58.8267 638.538 61.216C637.173 63.6053 635.125 65.44 632.394 66.72C629.706 68 626.357 68.64 622.346 68.64C619.957 68.64 617.695 68.4267 615.562 68C613.471 67.5733 611.637 66.9547 610.058 66.144V57.824C611.637 58.6347 613.535 59.3387 615.754 59.936C617.973 60.4907 620.063 60.768 622.026 60.768C623.946 60.768 625.546 60.512 626.826 60C628.149 59.488 629.151 58.6987 629.834 57.632C630.517 56.5653 630.858 55.2 630.858 53.536C630.858 51.2747 630.111 49.568 628.618 48.416C627.125 47.2213 624.821 46.624 621.706 46.624C620.511 46.624 619.274 46.752 617.994 47.008C616.714 47.2213 615.647 47.4347 614.794 47.648L610.954 45.6L612.682 22.304H637.45V30.496H621.13L620.298 39.456C621.023 39.328 621.791 39.2 622.602 39.072C623.455 38.9013 624.629 38.816 626.122 38.816ZM677.787 45.152C677.787 48.8213 677.488 52.1067 676.891 55.008C676.336 57.9093 675.419 60.384 674.139 62.432C672.902 64.4373 671.259 65.9733 669.211 67.04C667.206 68.1067 664.731 68.64 661.787 68.64C658.118 68.64 655.11 67.7013 652.763 65.824C650.416 63.9467 648.667 61.2587 647.515 57.76C646.406 54.2613 645.851 50.0587 645.851 45.152C645.851 40.2027 646.363 35.9787 647.387 32.48C648.411 28.9813 650.096 26.2933 652.443 24.416C654.79 22.5387 657.904 21.6 661.787 21.6C665.456 21.6 668.464 22.5387 670.811 24.416C673.158 26.2507 674.907 28.9387 676.059 32.48C677.211 35.9787 677.787 40.2027 677.787 45.152ZM655.451 45.152C655.451 48.608 655.643 51.5093 656.027 53.856C656.411 56.16 657.051 57.9093 657.947 59.104C658.886 60.256 660.166 60.832 661.787 60.832C663.408 60.832 664.667 60.256 665.563 59.104C666.502 57.952 667.163 56.224 667.547 53.92C667.974 51.5733 668.187 48.6507 668.187 45.152C668.187 41.6533 667.974 38.752 667.547 36.448C667.163 34.1013 666.502 32.352 665.563 31.2C664.667 30.0053 663.408 29.408 661.787 29.408C660.166 29.408 658.886 30.0053 657.947 31.2C657.051 32.352 656.411 34.1013 656.027 36.448C655.643 38.752 655.451 41.6533 655.451 45.152ZM692.716 68L687.212 50.08H687.084C687.105 50.5067 687.137 51.1467 687.18 52C687.223 52.8533 687.265 53.7707 687.308 54.752C687.351 55.712 687.372 56.5867 687.372 57.376V68H683.052V45.152H689.644L695.052 62.624H695.148L700.876 45.152H707.468V68H702.956V57.184C702.956 56.4587 702.967 55.6267 702.988 54.688C703.031 53.7493 703.063 52.864 703.084 52.032C703.127 51.1787 703.159 50.5387 703.18 50.112H703.052L697.164 68H692.716ZM733.495 68H727.351L717.399 50.72H717.271C717.293 51.2533 717.314 51.7973 717.335 52.352C717.357 52.8853 717.378 53.4293 717.399 53.984C717.442 54.5173 717.474 55.0613 717.495 55.616C717.517 56.1493 717.538 56.6933 717.559 57.248V68H713.239V45.152H719.351L729.271 62.272H729.367C729.346 61.7387 729.325 61.216 729.303 60.704C729.282 60.1707 729.261 59.648 729.239 59.136C729.239 58.6027 729.229 58.08 729.207 57.568C729.186 57.0347 729.165 56.5013 729.143 55.968V45.152H733.495V68ZM747.239 55.008H753.287V58.432H747.239V64.448H743.815V58.432H737.767V55.008H743.815V48.928H747.239V55.008ZM650.235 104.944C650.235 105.627 650.07 106.208 649.739 106.688C649.408 107.157 648.934 107.52 648.315 107.776C647.707 108.032 646.987 108.16 646.155 108.16C645.728 108.16 645.318 108.139 644.923 108.096C644.539 108.053 644.187 107.995 643.867 107.92C643.547 107.835 643.264 107.733 643.019 107.616V106.24C643.403 106.411 643.878 106.565 644.443 106.704C645.019 106.843 645.611 106.912 646.219 106.912C646.784 106.912 647.259 106.837 647.643 106.688C648.027 106.539 648.315 106.325 648.507 106.048C648.699 105.771 648.795 105.445 648.795 105.072C648.795 104.699 648.715 104.384 648.555 104.128C648.395 103.872 648.118 103.637 647.723 103.424C647.339 103.2 646.8 102.965 646.107 102.72C645.616 102.539 645.184 102.347 644.811 102.144C644.448 101.931 644.144 101.691 643.899 101.424C643.654 101.157 643.467 100.853 643.339 100.512C643.222 100.171 643.163 99.776 643.163 99.328C643.163 98.72 643.318 98.2027 643.627 97.776C643.936 97.3387 644.363 97.0027 644.907 96.768C645.462 96.5333 646.096 96.416 646.811 96.416C647.44 96.416 648.016 96.4747 648.539 96.592C649.062 96.7093 649.536 96.864 649.963 97.056L649.515 98.288C649.12 98.1173 648.688 97.9733 648.219 97.856C647.76 97.7387 647.28 97.68 646.779 97.68C646.299 97.68 645.899 97.7493 645.579 97.888C645.259 98.0267 645.019 98.224 644.859 98.48C644.699 98.7253 644.619 99.0133 644.619 99.344C644.619 99.728 644.699 100.048 644.859 100.304C645.019 100.56 645.28 100.789 645.643 100.992C646.006 101.195 646.496 101.413 647.115 101.648C647.787 101.893 648.352 102.16 648.811 102.448C649.28 102.725 649.632 103.061 649.867 103.456C650.112 103.851 650.235 104.347 650.235 104.944ZM655.592 99.28C656.638 99.28 657.411 99.5093 657.912 99.968C658.414 100.427 658.664 101.157 658.664 102.16V108H657.64L657.368 106.784H657.304C657.059 107.093 656.803 107.355 656.536 107.568C656.28 107.771 655.982 107.92 655.64 108.016C655.31 108.112 654.904 108.16 654.424 108.16C653.912 108.16 653.448 108.069 653.032 107.888C652.627 107.707 652.307 107.429 652.072 107.056C651.838 106.672 651.72 106.192 651.72 105.616C651.72 104.763 652.056 104.107 652.728 103.648C653.4 103.179 654.435 102.923 655.832 102.88L657.288 102.832V102.32C657.288 101.605 657.134 101.109 656.824 100.832C656.515 100.555 656.078 100.416 655.512 100.416C655.064 100.416 654.638 100.485 654.232 100.624C653.827 100.752 653.448 100.901 653.096 101.072L652.664 100.016C653.038 99.8133 653.48 99.6427 653.992 99.504C654.504 99.3547 655.038 99.28 655.592 99.28ZM656.008 103.856C654.942 103.899 654.2 104.069 653.784 104.368C653.379 104.667 653.176 105.088 653.176 105.632C653.176 106.112 653.32 106.464 653.608 106.688C653.907 106.912 654.286 107.024 654.744 107.024C655.47 107.024 656.072 106.827 656.552 106.432C657.032 106.027 657.272 105.408 657.272 104.576V103.808L656.008 103.856ZM663.201 108L659.953 99.424H661.457L663.281 104.48C663.366 104.715 663.457 104.976 663.553 105.264C663.649 105.552 663.734 105.829 663.809 106.096C663.884 106.352 663.937 106.571 663.969 106.752H664.033C664.076 106.571 664.134 106.347 664.209 106.08C664.294 105.813 664.385 105.536 664.481 105.248C664.588 104.96 664.678 104.704 664.753 104.48L666.577 99.424H668.081L664.817 108H663.201ZM672.75 99.264C673.486 99.264 674.115 99.424 674.638 99.744C675.171 100.064 675.577 100.517 675.854 101.104C676.142 101.68 676.286 102.357 676.286 103.136V103.984H670.414C670.435 104.955 670.681 105.696 671.15 106.208C671.63 106.709 672.297 106.96 673.15 106.96C673.694 106.96 674.174 106.912 674.59 106.816C675.017 106.709 675.454 106.56 675.902 106.368V107.6C675.465 107.792 675.033 107.931 674.606 108.016C674.179 108.112 673.673 108.16 673.086 108.16C672.275 108.16 671.555 107.995 670.926 107.664C670.307 107.333 669.822 106.843 669.47 106.192C669.129 105.531 668.958 104.725 668.958 103.776C668.958 102.837 669.113 102.032 669.422 101.36C669.742 100.688 670.185 100.171 670.75 99.808C671.326 99.4453 671.993 99.264 672.75 99.264ZM672.734 100.416C672.062 100.416 671.529 100.635 671.134 101.072C670.75 101.499 670.521 102.096 670.446 102.864H674.814C674.814 102.373 674.739 101.947 674.59 101.584C674.441 101.221 674.211 100.939 673.902 100.736C673.603 100.523 673.214 100.416 672.734 100.416ZM681.509 108.16C680.443 108.16 679.589 107.792 678.949 107.056C678.309 106.309 677.989 105.2 677.989 103.728C677.989 102.256 678.309 101.147 678.949 100.4C679.6 99.6427 680.459 99.264 681.525 99.264C681.973 99.264 682.363 99.3227 682.693 99.44C683.024 99.5467 683.312 99.696 683.557 99.888C683.803 100.08 684.011 100.293 684.181 100.528H684.277C684.267 100.389 684.245 100.187 684.213 99.92C684.192 99.6427 684.181 99.424 684.181 99.264V95.84H685.589V108H684.453L684.245 106.848H684.181C684.011 107.093 683.803 107.317 683.557 107.52C683.312 107.712 683.019 107.867 682.677 107.984C682.347 108.101 681.957 108.16 681.509 108.16ZM681.733 106.992C682.64 106.992 683.275 106.747 683.637 106.256C684.011 105.755 684.197 105.003 684.197 104V103.744C684.197 102.677 684.021 101.861 683.669 101.296C683.317 100.72 682.667 100.432 681.717 100.432C680.96 100.432 680.389 100.736 680.005 101.344C679.632 101.941 679.445 102.747 679.445 103.76C679.445 104.784 679.632 105.579 680.005 106.144C680.389 106.709 680.965 106.992 681.733 106.992Z" fill="white"/>
<path d="M240.995 68H231.331V41.568C231.331 40.8427 231.331 39.9467 231.331 38.88C231.373 37.8133 231.416 36.704 231.458 35.552C231.501 34.4 231.544 33.376 231.587 32.48C231.373 32.736 230.904 33.2053 230.179 33.888C229.496 34.528 228.856 35.104 228.259 35.616L223.01 39.84L218.339 34.016L233.059 22.304H240.995V68ZM270.388 38.816C273.161 38.816 275.636 39.3493 277.812 40.416C279.988 41.4827 281.694 43.04 282.932 45.088C284.212 47.136 284.852 49.6747 284.852 52.704C284.852 55.9893 284.169 58.8267 282.804 61.216C281.438 63.6053 279.39 65.44 276.66 66.72C273.972 68 270.622 68.64 266.612 68.64C264.222 68.64 261.961 68.4267 259.828 68C257.737 67.5733 255.902 66.9547 254.324 66.144V57.824C255.902 58.6347 257.801 59.3387 260.02 59.936C262.238 60.4907 264.329 60.768 266.292 60.768C268.212 60.768 269.812 60.512 271.092 60C272.414 59.488 273.417 58.6987 274.1 57.632C274.782 56.5653 275.124 55.2 275.124 53.536C275.124 51.2747 274.377 49.568 272.884 48.416C271.39 47.2213 269.086 46.624 265.972 46.624C264.777 46.624 263.54 46.752 262.26 47.008C260.98 47.2213 259.913 47.4347 259.06 47.648L255.22 45.6L256.948 22.304H281.716V30.496H265.396L264.564 39.456C265.289 39.328 266.057 39.2 266.868 39.072C267.721 38.9013 268.894 38.816 270.388 38.816ZM309.509 42.016H321.604V48.864H309.509V60.896H302.661V48.864H290.565V42.016H302.661V29.856H309.509V42.016ZM200.708 102.192L203.684 96.576H205.236L201.428 103.568V108H199.988V103.632L196.18 96.576H197.748L200.708 102.192ZM209.117 99.264C209.853 99.264 210.483 99.424 211.005 99.744C211.539 100.064 211.944 100.517 212.221 101.104C212.509 101.68 212.653 102.357 212.653 103.136V103.984H206.781C206.803 104.955 207.048 105.696 207.517 106.208C207.997 106.709 208.664 106.96 209.517 106.96C210.061 106.96 210.541 106.912 210.957 106.816C211.384 106.709 211.821 106.56 212.269 106.368V107.6C211.832 107.792 211.4 107.931 210.973 108.016C210.547 108.112 210.04 108.16 209.453 108.16C208.643 108.16 207.923 107.995 207.293 107.664C206.675 107.333 206.189 106.843 205.837 106.192C205.496 105.531 205.325 104.725 205.325 103.776C205.325 102.837 205.48 102.032 205.789 101.36C206.109 100.688 206.552 100.171 207.117 99.808C207.693 99.4453 208.36 99.264 209.117 99.264ZM209.101 100.416C208.429 100.416 207.896 100.635 207.501 101.072C207.117 101.499 206.888 102.096 206.813 102.864H211.181C211.181 102.373 211.107 101.947 210.957 101.584C210.808 101.221 210.579 100.939 210.269 100.736C209.971 100.523 209.581 100.416 209.101 100.416ZM218.085 99.28C219.13 99.28 219.903 99.5093 220.405 99.968C220.906 100.427 221.157 101.157 221.157 102.16V108H220.133L219.861 106.784H219.797C219.551 107.093 219.295 107.355 219.029 107.568C218.773 107.771 218.474 107.92 218.133 108.016C217.802 108.112 217.397 108.16 216.917 108.16C216.405 108.16 215.941 108.069 215.525 107.888C215.119 107.707 214.799 107.429 214.565 107.056C214.33 106.672 214.213 106.192 214.213 105.616C214.213 104.763 214.549 104.107 215.221 103.648C215.893 103.179 216.927 102.923 218.325 102.88L219.781 102.832V102.32C219.781 101.605 219.626 101.109 219.317 100.832C219.007 100.555 218.57 100.416 218.005 100.416C217.557 100.416 217.13 100.485 216.725 100.624C216.319 100.752 215.941 100.901 215.589 101.072L215.157 100.016C215.53 99.8133 215.973 99.6427 216.485 99.504C216.997 99.3547 217.53 99.28 218.085 99.28ZM218.501 103.856C217.434 103.899 216.693 104.069 216.277 104.368C215.871 104.667 215.669 105.088 215.669 105.632C215.669 106.112 215.813 106.464 216.101 106.688C216.399 106.912 216.778 107.024 217.237 107.024C217.962 107.024 218.565 106.827 219.045 106.432C219.525 106.027 219.765 105.408 219.765 104.576V103.808L218.501 103.856ZM227.805 99.264C227.965 99.264 228.136 99.2747 228.317 99.296C228.509 99.3067 228.675 99.328 228.813 99.36L228.637 100.656C228.499 100.624 228.344 100.597 228.173 100.576C228.013 100.555 227.859 100.544 227.709 100.544C227.379 100.544 227.064 100.613 226.765 100.752C226.467 100.891 226.2 101.088 225.965 101.344C225.731 101.589 225.544 101.888 225.405 102.24C225.277 102.592 225.213 102.987 225.213 103.424V108H223.805V99.424H224.957L225.117 100.992H225.181C225.363 100.672 225.581 100.384 225.837 100.128C226.093 99.8613 226.387 99.6533 226.717 99.504C227.048 99.344 227.411 99.264 227.805 99.264ZM235.999 105.632C235.999 106.187 235.86 106.651 235.583 107.024C235.305 107.397 234.911 107.68 234.399 107.872C233.887 108.064 233.279 108.16 232.575 108.16C231.977 108.16 231.46 108.112 231.023 108.016C230.596 107.92 230.217 107.787 229.887 107.616V106.336C230.228 106.507 230.639 106.667 231.119 106.816C231.609 106.955 232.105 107.024 232.607 107.024C233.321 107.024 233.839 106.912 234.159 106.688C234.479 106.453 234.639 106.144 234.639 105.76C234.639 105.547 234.58 105.355 234.463 105.184C234.345 105.013 234.132 104.843 233.823 104.672C233.524 104.501 233.092 104.309 232.527 104.096C231.972 103.883 231.497 103.669 231.103 103.456C230.708 103.243 230.404 102.987 230.191 102.688C229.977 102.389 229.871 102.005 229.871 101.536C229.871 100.811 230.164 100.251 230.751 99.856C231.348 99.4613 232.127 99.264 233.087 99.264C233.609 99.264 234.095 99.3173 234.543 99.424C235.001 99.52 235.428 99.6587 235.823 99.84L235.343 100.96C235.108 100.853 234.857 100.763 234.591 100.688C234.335 100.603 234.073 100.539 233.807 100.496C233.54 100.443 233.268 100.416 232.991 100.416C232.415 100.416 231.972 100.512 231.663 100.704C231.364 100.885 231.215 101.136 231.215 101.456C231.215 101.691 231.284 101.893 231.423 102.064C231.561 102.224 231.791 102.384 232.111 102.544C232.441 102.693 232.879 102.875 233.423 103.088C233.967 103.291 234.431 103.499 234.815 103.712C235.199 103.925 235.492 104.187 235.695 104.496C235.897 104.795 235.999 105.173 235.999 105.632ZM249.683 103.696C249.683 104.411 249.587 105.045 249.395 105.6C249.214 106.144 248.947 106.608 248.595 106.992C248.254 107.376 247.833 107.669 247.331 107.872C246.841 108.064 246.291 108.16 245.683 108.16C245.118 108.16 244.595 108.064 244.115 107.872C243.635 107.669 243.219 107.376 242.867 106.992C242.515 106.608 242.238 106.144 242.035 105.6C241.843 105.045 241.747 104.411 241.747 103.696C241.747 102.747 241.907 101.947 242.227 101.296C242.547 100.635 243.006 100.133 243.603 99.792C244.201 99.44 244.91 99.264 245.731 99.264C246.51 99.264 247.193 99.44 247.779 99.792C248.377 100.133 248.841 100.635 249.171 101.296C249.513 101.947 249.683 102.747 249.683 103.696ZM243.203 103.696C243.203 104.368 243.289 104.955 243.459 105.456C243.641 105.947 243.918 106.325 244.291 106.592C244.665 106.859 245.139 106.992 245.715 106.992C246.291 106.992 246.766 106.859 247.139 106.592C247.513 106.325 247.785 105.947 247.955 105.456C248.137 104.955 248.227 104.368 248.227 103.696C248.227 103.013 248.137 102.432 247.955 101.952C247.774 101.472 247.497 101.104 247.123 100.848C246.761 100.581 246.286 100.448 245.699 100.448C244.825 100.448 244.19 100.736 243.795 101.312C243.401 101.888 243.203 102.683 243.203 103.696ZM255.867 100.512H253.707V108H252.299V100.512H250.795V99.856L252.299 99.376V98.88C252.299 98.144 252.405 97.5467 252.619 97.088C252.843 96.6293 253.163 96.2933 253.579 96.08C253.995 95.8667 254.496 95.76 255.083 95.76C255.424 95.76 255.733 95.792 256.011 95.856C256.299 95.9093 256.544 95.9733 256.747 96.048L256.379 97.152C256.208 97.0987 256.011 97.0453 255.787 96.992C255.563 96.9387 255.333 96.912 255.099 96.912C254.629 96.912 254.277 97.072 254.043 97.392C253.819 97.7013 253.707 98.192 253.707 98.864V99.424H255.867V100.512ZM268.147 108H261.763V96.576H268.147V97.84H263.203V101.408H267.859V102.656H263.203V106.736H268.147V108ZM272.494 103.616L269.534 99.424H271.134L273.342 102.656L275.534 99.424H277.118L274.158 103.616L277.278 108H275.678L273.342 104.576L270.974 108H269.39L272.494 103.616ZM283.01 99.264C284.066 99.264 284.914 99.632 285.554 100.368C286.205 101.104 286.53 102.213 286.53 103.696C286.53 104.667 286.381 105.488 286.082 106.16C285.794 106.821 285.384 107.323 284.85 107.664C284.328 107.995 283.709 108.16 282.994 108.16C282.557 108.16 282.168 108.101 281.826 107.984C281.485 107.867 281.192 107.717 280.946 107.536C280.712 107.344 280.509 107.136 280.338 106.912H280.242C280.264 107.093 280.285 107.323 280.306 107.6C280.328 107.877 280.338 108.117 280.338 108.32V111.84H278.93V99.424H280.082L280.274 100.592H280.338C280.509 100.347 280.712 100.123 280.946 99.92C281.192 99.7173 281.48 99.5573 281.81 99.44C282.152 99.3227 282.552 99.264 283.01 99.264ZM282.754 100.448C282.178 100.448 281.714 100.56 281.362 100.784C281.01 100.997 280.754 101.323 280.594 101.76C280.434 102.197 280.349 102.752 280.338 103.424V103.696C280.338 104.4 280.413 104.997 280.562 105.488C280.712 105.979 280.962 106.352 281.314 106.608C281.677 106.864 282.168 106.992 282.786 106.992C283.309 106.992 283.736 106.848 284.066 106.56C284.408 106.272 284.658 105.883 284.818 105.392C284.989 104.891 285.074 104.32 285.074 103.68C285.074 102.699 284.882 101.915 284.498 101.328C284.125 100.741 283.544 100.448 282.754 100.448ZM292.086 99.264C292.822 99.264 293.451 99.424 293.974 99.744C294.507 100.064 294.913 100.517 295.19 101.104C295.478 101.68 295.622 102.357 295.622 103.136V103.984H289.75C289.771 104.955 290.017 105.696 290.486 106.208C290.966 106.709 291.633 106.96 292.486 106.96C293.03 106.96 293.51 106.912 293.926 106.816C294.353 106.709 294.79 106.56 295.238 106.368V107.6C294.801 107.792 294.369 107.931 293.942 108.016C293.515 108.112 293.009 108.16 292.422 108.16C291.611 108.16 290.891 107.995 290.262 107.664C289.643 107.333 289.158 106.843 288.806 106.192C288.465 105.531 288.294 104.725 288.294 103.776C288.294 102.837 288.449 102.032 288.758 101.36C289.078 100.688 289.521 100.171 290.086 99.808C290.662 99.4453 291.329 99.264 292.086 99.264ZM292.07 100.416C291.398 100.416 290.865 100.635 290.47 101.072C290.086 101.499 289.857 102.096 289.782 102.864H294.15C294.15 102.373 294.075 101.947 293.926 101.584C293.777 101.221 293.547 100.939 293.238 100.736C292.939 100.523 292.55 100.416 292.07 100.416ZM301.805 99.264C301.965 99.264 302.136 99.2747 302.317 99.296C302.509 99.3067 302.675 99.328 302.813 99.36L302.637 100.656C302.499 100.624 302.344 100.597 302.173 100.576C302.013 100.555 301.859 100.544 301.709 100.544C301.379 100.544 301.064 100.613 300.765 100.752C300.467 100.891 300.2 101.088 299.965 101.344C299.731 101.589 299.544 101.888 299.405 102.24C299.277 102.592 299.213 102.987 299.213 103.424V108H297.805V99.424H298.957L299.117 100.992H299.181C299.363 100.672 299.581 100.384 299.837 100.128C300.093 99.8613 300.387 99.6533 300.717 99.504C301.048 99.344 301.411 99.264 301.805 99.264ZM305.823 99.424V108H304.415V99.424H305.823ZM305.135 96.208C305.348 96.208 305.535 96.2827 305.695 96.432C305.865 96.5707 305.951 96.7947 305.951 97.104C305.951 97.4027 305.865 97.6267 305.695 97.776C305.535 97.9253 305.348 98 305.135 98C304.9 98 304.703 97.9253 304.543 97.776C304.383 97.6267 304.303 97.4027 304.303 97.104C304.303 96.7947 304.383 96.5707 304.543 96.432C304.703 96.2827 304.9 96.208 305.135 96.208ZM311.852 99.264C312.588 99.264 313.217 99.424 313.74 99.744C314.273 100.064 314.678 100.517 314.956 101.104C315.244 101.68 315.388 102.357 315.388 103.136V103.984H309.516C309.537 104.955 309.782 105.696 310.252 106.208C310.732 106.709 311.398 106.96 312.252 106.96C312.796 106.96 313.276 106.912 313.692 106.816C314.118 106.709 314.556 106.56 315.004 106.368V107.6C314.566 107.792 314.134 107.931 313.708 108.016C313.281 108.112 312.774 108.16 312.188 108.16C311.377 108.16 310.657 107.995 310.028 107.664C309.409 107.333 308.924 106.843 308.572 106.192C308.23 105.531 308.06 104.725 308.06 103.776C308.06 102.837 308.214 102.032 308.524 101.36C308.844 100.688 309.286 100.171 309.852 99.808C310.428 99.4453 311.094 99.264 311.852 99.264ZM311.836 100.416C311.164 100.416 310.63 100.635 310.236 101.072C309.852 101.499 309.622 102.096 309.548 102.864H313.916C313.916 102.373 313.841 101.947 313.692 101.584C313.542 101.221 313.313 100.939 313.004 100.736C312.705 100.523 312.316 100.416 311.836 100.416ZM321.699 99.264C322.723 99.264 323.496 99.5147 324.019 100.016C324.542 100.507 324.803 101.307 324.803 102.416V108H323.411V102.512C323.411 101.819 323.256 101.301 322.947 100.96C322.638 100.619 322.152 100.448 321.491 100.448C320.542 100.448 319.886 100.715 319.523 101.248C319.16 101.781 318.979 102.549 318.979 103.552V108H317.571V99.424H318.707L318.915 100.592H318.995C319.187 100.293 319.422 100.048 319.699 99.856C319.987 99.6533 320.302 99.504 320.643 99.408C320.984 99.312 321.336 99.264 321.699 99.264ZM330.902 108.16C330.144 108.16 329.467 108.005 328.87 107.696C328.283 107.387 327.819 106.907 327.478 106.256C327.147 105.605 326.982 104.773 326.982 103.76C326.982 102.704 327.158 101.845 327.51 101.184C327.862 100.523 328.336 100.037 328.934 99.728C329.542 99.4187 330.23 99.264 330.998 99.264C331.435 99.264 331.856 99.312 332.262 99.408C332.667 99.4933 332.998 99.6 333.254 99.728L332.822 100.896C332.566 100.8 332.267 100.709 331.926 100.624C331.584 100.539 331.264 100.496 330.966 100.496C330.39 100.496 329.915 100.619 329.542 100.864C329.168 101.109 328.891 101.472 328.71 101.952C328.528 102.432 328.438 103.029 328.438 103.744C328.438 104.427 328.528 105.008 328.71 105.488C328.891 105.968 329.163 106.331 329.526 106.576C329.888 106.821 330.342 106.944 330.886 106.944C331.355 106.944 331.766 106.896 332.118 106.8C332.48 106.704 332.811 106.587 333.11 106.448V107.696C332.822 107.845 332.502 107.957 332.15 108.032C331.808 108.117 331.392 108.16 330.902 108.16ZM338.461 99.264C339.197 99.264 339.826 99.424 340.349 99.744C340.882 100.064 341.288 100.517 341.565 101.104C341.853 101.68 341.997 102.357 341.997 103.136V103.984H336.125C336.146 104.955 336.392 105.696 336.861 106.208C337.341 106.709 338.008 106.96 338.861 106.96C339.405 106.96 339.885 106.912 340.301 106.816C340.728 106.709 341.165 106.56 341.613 106.368V107.6C341.176 107.792 340.744 107.931 340.317 108.016C339.89 108.112 339.384 108.16 338.797 108.16C337.986 108.16 337.266 107.995 336.637 107.664C336.018 107.333 335.533 106.843 335.181 106.192C334.84 105.531 334.669 104.725 334.669 103.776C334.669 102.837 334.824 102.032 335.133 101.36C335.453 100.688 335.896 100.171 336.461 99.808C337.037 99.4453 337.704 99.264 338.461 99.264ZM338.445 100.416C337.773 100.416 337.24 100.635 336.845 101.072C336.461 101.499 336.232 102.096 336.157 102.864H340.525C340.525 102.373 340.45 101.947 340.301 101.584C340.152 101.221 339.922 100.939 339.613 100.736C339.314 100.523 338.925 100.416 338.445 100.416Z" fill="white"/>
</svg>
