<svg width="62" height="82" viewBox="0 0 62 82" fill="none" xmlns="http://www.w3.org/2000/svg">
<path d="M10.22 17.04C10.22 17.88 10.0133 18.6133 9.6 19.24C9.18667 19.8667 8.58667 20.3533 7.8 20.7C7.02667 21.0333 6.08 21.2 4.96 21.2C4.46667 21.2 3.98 21.1667 3.5 21.1C3.03333 21.0333 2.58 20.94 2.14 20.82C1.71333 20.6867 1.30667 20.5267 0.92 20.34V17.52C1.6 17.8133 2.3 18.0867 3.02 18.34C3.75333 18.58 4.48 18.7 5.2 18.7C5.69333 18.7 6.08667 18.6333 6.38 18.5C6.68667 18.3667 6.90667 18.1867 7.04 17.96C7.18667 17.7333 7.26 17.4733 7.26 17.18C7.26 16.82 7.13333 16.5133 6.88 16.26C6.64 16.0067 6.31333 15.7733 5.9 15.56C5.48667 15.3333 5.01333 15.0933 4.48 14.84C4.14667 14.68 3.78667 14.4933 3.4 14.28C3.01333 14.0533 2.64 13.78 2.28 13.46C1.93333 13.1267 1.64667 12.7267 1.42 12.26C1.19333 11.7933 1.08 11.2333 1.08 10.58C1.08 9.72667 1.27333 9 1.66 8.4C2.06 7.78667 2.62 7.32 3.34 7C4.07333 6.68 4.93333 6.52 5.92 6.52C6.66667 6.52 7.37333 6.60667 8.04 6.78C8.72 6.95333 9.42667 7.2 10.16 7.52L9.18 9.88C8.52667 9.61333 7.94 9.40667 7.42 9.26C6.9 9.11333 6.36667 9.04 5.82 9.04C5.44667 9.04 5.12667 9.1 4.86 9.22C4.59333 9.34 4.38667 9.50667 4.24 9.72C4.10667 9.93333 4.04 10.1867 4.04 10.48C4.04 10.8133 4.14 11.1 4.34 11.34C4.54 11.5667 4.84 11.7867 5.24 12C5.64 12.2133 6.14 12.4667 6.74 12.76C7.47333 13.1067 8.09333 13.4667 8.6 13.84C9.12 14.2133 9.52 14.6533 9.8 15.16C10.08 15.6667 10.22 16.2933 10.22 17.04ZM30.3556 6.72L26.7156 21H23.2756L21.3356 13.5C21.2956 13.3533 21.2423 13.1333 21.1756 12.84C21.1223 12.5467 21.0556 12.2267 20.9756 11.88C20.909 11.5333 20.849 11.2067 20.7956 10.9C20.7423 10.58 20.7023 10.3333 20.6756 10.16C20.6623 10.3333 20.6223 10.58 20.5556 10.9C20.5023 11.2067 20.4423 11.5333 20.3756 11.88C20.309 12.2133 20.2423 12.5333 20.1756 12.84C20.109 13.1333 20.0556 13.36 20.0156 13.52L18.0956 21H14.6556L11.0156 6.72H13.9956L15.8156 14.52C15.869 14.7467 15.929 15.0267 15.9956 15.36C16.0623 15.68 16.129 16.02 16.1956 16.38C16.2623 16.7267 16.3223 17.0667 16.3756 17.4C16.4423 17.7333 16.489 18.02 16.5156 18.26C16.5423 18.0067 16.5823 17.72 16.6356 17.4C16.689 17.0667 16.749 16.7333 16.8156 16.4C16.8823 16.0533 16.9423 15.7333 16.9956 15.44C17.0623 15.1333 17.1223 14.8933 17.1756 14.72L19.2556 6.72H22.1156L24.1956 14.72C24.2356 14.8933 24.289 15.1333 24.3556 15.44C24.4223 15.7333 24.489 16.0533 24.5556 16.4C24.6223 16.7467 24.6823 17.0867 24.7356 17.42C24.789 17.74 24.829 18.02 24.8556 18.26C24.8956 17.9267 24.9556 17.5333 25.0356 17.08C25.1156 16.6133 25.2023 16.1467 25.2956 15.68C25.4023 15.2133 25.489 14.8267 25.5556 14.52L27.3756 6.72H30.3556ZM37.4916 21H30.9916V19.28L32.7316 18.48V9.24L30.9916 8.44V6.72H37.4916V8.44L35.7516 9.24V18.48L37.4916 19.28V21ZM44.485 6.72C46.325 6.72 47.665 7.12 48.505 7.92C49.3583 8.70667 49.785 9.79333 49.785 11.18C49.785 11.8067 49.6917 12.4067 49.505 12.98C49.3183 13.54 49.005 14.0467 48.565 14.5C48.1383 14.94 47.5717 15.2867 46.865 15.54C46.1583 15.7933 45.285 15.92 44.245 15.92H42.945V21H39.925V6.72H44.485ZM44.325 9.2H42.945V13.44H43.945C44.5183 13.44 45.0117 13.3667 45.425 13.22C45.8383 13.0733 46.1583 12.84 46.385 12.52C46.6117 12.2 46.725 11.7867 46.725 11.28C46.725 10.5733 46.5317 10.0533 46.145 9.72C45.7583 9.37333 45.1517 9.2 44.325 9.2ZM60.7036 21H52.4836V6.72H60.7036V9.2H55.5036V12.34H60.3436V14.82H55.5036V18.5H60.7036V21Z" fill="white" fill-opacity="0.75"/>
<g clip-path="url(#clip0_1028_173)">
<path d="M6 57C6 63.6304 8.63392 69.9893 13.3223 74.6777C18.0107 79.3661 24.3696 82 31 82C37.6304 82 43.9893 79.3661 48.6777 74.6777C53.3661 69.9893 56 63.6304 56 57C56 50.3696 53.3661 44.0107 48.6777 39.3223C43.9893 34.6339 37.6304 32 31 32C24.3696 32 18.0107 34.6339 13.3223 39.3223C8.63392 44.0107 6 50.3696 6 57ZM44.6035 58.1035L33.666 69.041C33.2168 69.4902 32.543 69.6172 31.9668 69.3828C31.3906 69.1484 31 68.5723 31 67.9375V61.6875H21.625C19.8965 61.6875 18.5 60.291 18.5 58.5625V55.4375C18.5 53.709 19.8965 52.3125 21.625 52.3125H31V46.0625C31 45.4277 31.3809 44.8613 31.9668 44.6172C32.5527 44.373 33.2266 44.5098 33.666 44.959L44.6035 55.8965C45.209 56.502 45.209 57.498 44.6035 58.1035Z" fill="white" fill-opacity="0.75"/>
</g>
<defs>
<clipPath id="clip0_1028_173">
<rect width="50" height="50" fill="white" transform="translate(6 32)"/>
</clipPath>
</defs>
</svg>
