<svg width="500" height="70" viewBox="0 0 500 70" fill="none" xmlns="http://www.w3.org/2000/svg">
<rect width="500" height="70" rx="15" fill="#CF2D31"/>
<path d="M56.064 40.888C56.064 42.2533 55.7333 43.416 55.072 44.376C54.4107 45.3147 53.4613 46.04 52.224 46.552C51.008 47.064 49.568 47.32 47.904 47.32C47.0507 47.32 46.2293 47.2773 45.44 47.192C44.672 47.1067 43.968 46.9893 43.328 46.84C42.688 46.6693 42.1227 46.4667 41.632 46.232V43.48C42.4 43.8213 43.3493 44.1307 44.48 44.408C45.632 44.6853 46.816 44.824 48.032 44.824C49.1627 44.824 50.112 44.6747 50.88 44.376C51.648 44.0773 52.224 43.6507 52.608 43.096C52.992 42.5413 53.184 41.8907 53.184 41.144C53.184 40.3973 53.024 39.768 52.704 39.256C52.384 38.744 51.8293 38.2747 51.04 37.848C50.272 37.4 49.1947 36.9307 47.808 36.44C46.8267 36.0773 45.9627 35.6933 45.216 35.288C44.4907 34.8613 43.8827 34.3813 43.392 33.848C42.9013 33.3147 42.528 32.7067 42.272 32.024C42.0373 31.3413 41.92 30.552 41.92 29.656C41.92 28.44 42.2293 27.4053 42.848 26.552C43.4667 25.6773 44.32 25.0053 45.408 24.536C46.5173 24.0667 47.7867 23.832 49.216 23.832C50.4747 23.832 51.6267 23.9493 52.672 24.184C53.7173 24.4187 54.6667 24.728 55.52 25.112L54.624 27.576C53.8347 27.2347 52.9707 26.9467 52.032 26.712C51.1147 26.4773 50.1547 26.36 49.152 26.36C48.192 26.36 47.392 26.4987 46.752 26.776C46.112 27.0533 45.632 27.448 45.312 27.96C44.992 28.4507 44.832 29.0267 44.832 29.688C44.832 30.456 44.992 31.096 45.312 31.608C45.632 32.12 46.1547 32.5787 46.88 32.984C47.6053 33.3893 48.5867 33.8267 49.824 34.296C51.168 34.7867 52.2987 35.32 53.216 35.896C54.1547 36.4507 54.8587 37.1227 55.328 37.912C55.8187 38.7013 56.064 39.6933 56.064 40.888ZM63.0985 29.816C63.0985 30.2213 63.0772 30.6373 63.0345 31.064C63.0132 31.4907 62.9812 31.8747 62.9385 32.216H63.1305C63.4932 31.6187 63.9518 31.128 64.5065 30.744C65.0612 30.36 65.6798 30.072 66.3625 29.88C67.0452 29.6667 67.7492 29.56 68.4745 29.56C69.8612 29.56 71.0132 29.784 71.9305 30.232C72.8692 30.6587 73.5732 31.3307 74.0425 32.248C74.5118 33.1653 74.7465 34.36 74.7465 35.832V47H71.9625V36.024C71.9625 34.6373 71.6532 33.6027 71.0345 32.92C70.4158 32.2373 69.4452 31.896 68.1225 31.896C66.8425 31.896 65.8398 32.1413 65.1145 32.632C64.3892 33.1013 63.8665 33.8053 63.5465 34.744C63.2478 35.6613 63.0985 36.792 63.0985 38.136V47H60.2825V22.68H63.0985V29.816ZM86.5598 29.56C88.6504 29.56 90.1971 30.0187 91.1998 30.936C92.2024 31.8533 92.7038 33.3147 92.7038 35.32V47H90.6558L90.1118 44.568H89.9838C89.4931 45.1867 88.9811 45.7093 88.4478 46.136C87.9358 46.5413 87.3384 46.84 86.6558 47.032C85.9944 47.224 85.1838 47.32 84.2238 47.32C83.1998 47.32 82.2718 47.1387 81.4398 46.776C80.6291 46.4133 79.9891 45.8587 79.5198 45.112C79.0504 44.344 78.8158 43.384 78.8158 42.232C78.8158 40.5253 79.4878 39.2133 80.8318 38.296C82.1758 37.3573 84.2451 36.8453 87.0398 36.76L89.9518 36.664V35.64C89.9518 34.2107 89.6424 33.2187 89.0238 32.664C88.4051 32.1093 87.5304 31.832 86.3998 31.832C85.5038 31.832 84.6504 31.9707 83.8398 32.248C83.0291 32.504 82.2718 32.8027 81.5677 33.144L80.7038 31.032C81.4504 30.6267 82.3358 30.2853 83.3598 30.008C84.3838 29.7093 85.4504 29.56 86.5598 29.56ZM87.3918 38.712C85.2584 38.7973 83.7758 39.1387 82.9438 39.736C82.1331 40.3333 81.7278 41.176 81.7278 42.264C81.7278 43.224 82.0158 43.928 82.5918 44.376C83.1891 44.824 83.9464 45.048 84.8638 45.048C86.3144 45.048 87.5198 44.6533 88.4798 43.864C89.4398 43.0533 89.9198 41.816 89.9198 40.152V38.616L87.3918 38.712ZM106.001 29.528C106.321 29.528 106.663 29.5493 107.025 29.592C107.409 29.6133 107.74 29.656 108.017 29.72L107.665 32.312C107.388 32.248 107.079 32.1947 106.737 32.152C106.417 32.1093 106.108 32.088 105.809 32.088C105.148 32.088 104.519 32.2267 103.921 32.504C103.324 32.7813 102.791 33.176 102.321 33.688C101.852 34.1787 101.479 34.776 101.201 35.48C100.945 36.184 100.817 36.9733 100.817 37.848V47H98.0013V29.848H100.305L100.625 32.984H100.753C101.116 32.344 101.553 31.768 102.065 31.256C102.577 30.7227 103.164 30.3067 103.825 30.008C104.487 29.688 105.212 29.528 106.001 29.528ZM117.219 29.528C118.691 29.528 119.95 29.848 120.995 30.488C122.062 31.128 122.872 32.0347 123.427 33.208C124.003 34.36 124.291 35.7147 124.291 37.272V38.968H112.547C112.59 40.9093 113.08 42.392 114.019 43.416C114.979 44.4187 116.312 44.92 118.019 44.92C119.107 44.92 120.067 44.824 120.899 44.632C121.752 44.4187 122.627 44.12 123.523 43.736V46.2C122.648 46.584 121.784 46.8613 120.931 47.032C120.078 47.224 119.064 47.32 117.891 47.32C116.27 47.32 114.83 46.9893 113.571 46.328C112.334 45.6667 111.363 44.6853 110.659 43.384C109.976 42.0613 109.635 40.4507 109.635 38.552C109.635 36.6747 109.944 35.064 110.563 33.72C111.203 32.376 112.088 31.3413 113.219 30.616C114.371 29.8907 115.704 29.528 117.219 29.528ZM117.187 31.832C115.843 31.832 114.776 32.2693 113.987 33.144C113.219 33.9973 112.76 35.192 112.611 36.728H121.347C121.347 35.7467 121.198 34.8933 120.899 34.168C120.6 33.4427 120.142 32.8773 119.523 32.472C118.926 32.0453 118.147 31.832 117.187 31.832ZM143.306 35.384L149.258 24.152H152.362L144.746 38.136V47H141.866V38.264L134.25 24.152H137.386L143.306 35.384ZM168.413 38.392C168.413 39.8213 168.221 41.0907 167.837 42.2C167.475 43.288 166.941 44.216 166.237 44.984C165.555 45.752 164.712 46.3387 163.709 46.744C162.728 47.128 161.629 47.32 160.413 47.32C159.283 47.32 158.237 47.128 157.277 46.744C156.317 46.3387 155.485 45.752 154.781 44.984C154.077 44.216 153.523 43.288 153.117 42.2C152.733 41.0907 152.541 39.8213 152.541 38.392C152.541 36.4933 152.861 34.8933 153.501 33.592C154.141 32.2693 155.059 31.2667 156.253 30.584C157.448 29.88 158.867 29.528 160.509 29.528C162.067 29.528 163.432 29.88 164.605 30.584C165.8 31.2667 166.728 32.2693 167.389 33.592C168.072 34.8933 168.413 36.4933 168.413 38.392ZM155.453 38.392C155.453 39.736 155.624 40.9093 155.965 41.912C156.328 42.8933 156.883 43.6507 157.629 44.184C158.376 44.7173 159.325 44.984 160.477 44.984C161.629 44.984 162.579 44.7173 163.325 44.184C164.072 43.6507 164.616 42.8933 164.957 41.912C165.32 40.9093 165.501 39.736 165.501 38.392C165.501 37.0267 165.32 35.864 164.957 34.904C164.595 33.944 164.04 33.208 163.293 32.696C162.568 32.1627 161.619 31.896 160.445 31.896C158.696 31.896 157.427 32.472 156.637 33.624C155.848 34.776 155.453 36.3653 155.453 38.392ZM187.212 29.848V47H184.908L184.492 44.728H184.364C184.002 45.3253 183.532 45.816 182.956 46.2C182.38 46.584 181.751 46.8613 181.068 47.032C180.386 47.224 179.671 47.32 178.924 47.32C177.559 47.32 176.407 47.1067 175.468 46.68C174.551 46.232 173.858 45.5493 173.388 44.632C172.919 43.7147 172.684 42.5307 172.684 41.08V29.848H175.532V40.888C175.532 42.2533 175.842 43.2773 176.46 43.96C177.079 44.6427 178.039 44.984 179.34 44.984C180.62 44.984 181.623 44.7493 182.348 44.28C183.095 43.7893 183.618 43.0853 183.916 42.168C184.236 41.2293 184.396 40.0987 184.396 38.776V29.848H187.212ZM200.658 29.528C200.978 29.528 201.319 29.5493 201.682 29.592C202.066 29.6133 202.396 29.656 202.674 29.72L202.322 32.312C202.044 32.248 201.735 32.1947 201.394 32.152C201.074 32.1093 200.764 32.088 200.466 32.088C199.804 32.088 199.175 32.2267 198.578 32.504C197.98 32.7813 197.447 33.176 196.978 33.688C196.508 34.1787 196.135 34.776 195.858 35.48C195.602 36.184 195.474 36.9733 195.474 37.848V47H192.658V29.848H194.962L195.282 32.984H195.41C195.772 32.344 196.21 31.768 196.722 31.256C197.234 30.7227 197.82 30.3067 198.482 30.008C199.143 29.688 199.868 29.528 200.658 29.528ZM220.877 24.152C222.775 24.152 224.333 24.3973 225.549 24.888C226.786 25.3573 227.703 26.072 228.301 27.032C228.898 27.992 229.197 29.1973 229.197 30.648C229.197 31.864 228.973 32.8773 228.525 33.688C228.077 34.4987 227.501 35.1493 226.797 35.64C226.114 36.1093 225.389 36.4827 224.621 36.76L230.893 47H227.533L221.997 37.56H217.453V47H214.573V24.152H220.877ZM220.717 26.648H217.453V35.128H220.877C222.114 35.128 223.127 34.968 223.917 34.648C224.706 34.3067 225.282 33.816 225.645 33.176C226.029 32.536 226.221 31.736 226.221 30.776C226.221 29.7733 226.018 28.9733 225.613 28.376C225.229 27.7787 224.631 27.3413 223.821 27.064C223.01 26.7867 221.975 26.648 220.717 26.648ZM240.719 29.528C242.191 29.528 243.45 29.848 244.495 30.488C245.562 31.128 246.372 32.0347 246.927 33.208C247.503 34.36 247.791 35.7147 247.791 37.272V38.968H236.047C236.09 40.9093 236.58 42.392 237.519 43.416C238.479 44.4187 239.812 44.92 241.519 44.92C242.607 44.92 243.567 44.824 244.399 44.632C245.252 44.4187 246.127 44.12 247.023 43.736V46.2C246.148 46.584 245.284 46.8613 244.431 47.032C243.578 47.224 242.564 47.32 241.391 47.32C239.77 47.32 238.33 46.9893 237.071 46.328C235.834 45.6667 234.863 44.6853 234.159 43.384C233.476 42.0613 233.135 40.4507 233.135 38.552C233.135 36.6747 233.444 35.064 234.063 33.72C234.703 32.376 235.588 31.3413 236.719 30.616C237.871 29.8907 239.204 29.528 240.719 29.528ZM240.687 31.832C239.343 31.832 238.276 32.2693 237.487 33.144C236.719 33.9973 236.26 35.192 236.111 36.728H244.847C244.847 35.7467 244.698 34.8933 244.399 34.168C244.1 33.4427 243.642 32.8773 243.023 32.472C242.426 32.0453 241.647 31.832 240.687 31.832ZM263.582 47.352C263.582 46.968 263.592 46.52 263.614 46.008C263.635 45.496 263.678 45.0587 263.742 44.696H263.55C263.059 45.4213 262.376 46.04 261.502 46.552C260.648 47.064 259.539 47.32 258.174 47.32C256.104 47.32 254.419 46.584 253.118 45.112C251.838 43.6187 251.198 41.4 251.198 38.456C251.198 36.4933 251.496 34.8507 252.094 33.528C252.691 32.2053 253.523 31.2133 254.59 30.552C255.656 29.8693 256.883 29.528 258.27 29.528C259.614 29.528 260.712 29.784 261.566 30.296C262.419 30.808 263.102 31.4373 263.614 32.184H263.742L264.158 29.848H266.398V54.68H263.582V47.352ZM258.718 44.984C259.891 44.984 260.83 44.7707 261.534 44.344C262.259 43.9173 262.782 43.2667 263.102 42.392C263.422 41.496 263.592 40.3867 263.614 39.064V38.488C263.614 36.312 263.251 34.6693 262.526 33.56C261.8 32.4293 260.51 31.864 258.654 31.864C257.118 31.864 255.976 32.472 255.23 33.688C254.483 34.8827 254.11 36.4933 254.11 38.52C254.11 40.5467 254.483 42.136 255.23 43.288C255.998 44.4187 257.16 44.984 258.718 44.984ZM286.181 29.848V47H283.877L283.461 44.728H283.333C282.97 45.3253 282.501 45.816 281.925 46.2C281.349 46.584 280.72 46.8613 280.037 47.032C279.354 47.224 278.64 47.32 277.893 47.32C276.528 47.32 275.376 47.1067 274.437 46.68C273.52 46.232 272.826 45.5493 272.357 44.632C271.888 43.7147 271.653 42.5307 271.653 41.08V29.848H274.501V40.888C274.501 42.2533 274.81 43.2773 275.429 43.96C276.048 44.6427 277.008 44.984 278.309 44.984C279.589 44.984 280.592 44.7493 281.317 44.28C282.064 43.7893 282.586 43.0853 282.885 42.168C283.205 41.2293 283.365 40.0987 283.365 38.776V29.848H286.181ZM294.442 29.848V47H291.626V29.848H294.442ZM293.066 23.416C293.493 23.416 293.866 23.5653 294.186 23.864C294.528 24.1413 294.698 24.5893 294.698 25.208C294.698 25.8053 294.528 26.2533 294.186 26.552C293.866 26.8507 293.493 27 293.066 27C292.597 27 292.202 26.8507 291.882 26.552C291.562 26.2533 291.402 25.8053 291.402 25.208C291.402 24.5893 291.562 24.1413 291.882 23.864C292.202 23.5653 292.597 23.416 293.066 23.416ZM307.876 29.528C308.196 29.528 308.538 29.5493 308.9 29.592C309.284 29.6133 309.615 29.656 309.892 29.72L309.54 32.312C309.263 32.248 308.954 32.1947 308.612 32.152C308.292 32.1093 307.983 32.088 307.684 32.088C307.023 32.088 306.394 32.2267 305.796 32.504C305.199 32.7813 304.666 33.176 304.196 33.688C303.727 34.1787 303.354 34.776 303.076 35.48C302.82 36.184 302.692 36.9733 302.692 37.848V47H299.876V29.848H302.18L302.5 32.984H302.628C302.991 32.344 303.428 31.768 303.94 31.256C304.452 30.7227 305.039 30.3067 305.7 30.008C306.362 29.688 307.087 29.528 307.876 29.528ZM319.094 29.528C320.566 29.528 321.825 29.848 322.87 30.488C323.937 31.128 324.747 32.0347 325.302 33.208C325.878 34.36 326.166 35.7147 326.166 37.272V38.968H314.422C314.465 40.9093 314.955 42.392 315.894 43.416C316.854 44.4187 318.187 44.92 319.894 44.92C320.982 44.92 321.942 44.824 322.774 44.632C323.627 44.4187 324.502 44.12 325.398 43.736V46.2C324.523 46.584 323.659 46.8613 322.806 47.032C321.953 47.224 320.939 47.32 319.766 47.32C318.145 47.32 316.705 46.9893 315.446 46.328C314.209 45.6667 313.238 44.6853 312.534 43.384C311.851 42.0613 311.51 40.4507 311.51 38.552C311.51 36.6747 311.819 35.064 312.438 33.72C313.078 32.376 313.963 31.3413 315.094 30.616C316.246 29.8907 317.579 29.528 319.094 29.528ZM319.062 31.832C317.718 31.832 316.651 32.2693 315.862 33.144C315.094 33.9973 314.635 35.192 314.486 36.728H323.222C323.222 35.7467 323.073 34.8933 322.774 34.168C322.475 33.4427 322.017 32.8773 321.398 32.472C320.801 32.0453 320.022 31.832 319.062 31.832ZM349.349 29.528C351.29 29.528 352.741 30.0293 353.701 31.032C354.661 32.0133 355.141 33.6133 355.141 35.832V47H352.357V35.96C352.357 34.616 352.069 33.6027 351.493 32.92C350.938 32.2373 350.063 31.896 348.869 31.896C347.205 31.896 346.01 32.376 345.285 33.336C344.581 34.296 344.229 35.6933 344.229 37.528V47H341.445V35.96C341.445 35.064 341.317 34.3173 341.061 33.72C340.805 33.1013 340.421 32.6427 339.909 32.344C339.397 32.0453 338.735 31.896 337.925 31.896C336.773 31.896 335.866 32.1413 335.205 32.632C334.543 33.1013 334.063 33.7947 333.765 34.712C333.487 35.6293 333.349 36.76 333.349 38.104V47H330.533V29.848H332.805L333.221 32.184H333.381C333.743 31.5867 334.181 31.096 334.693 30.712C335.226 30.3067 335.813 30.008 336.453 29.816C337.093 29.624 337.754 29.528 338.437 29.528C339.759 29.528 340.858 29.7627 341.733 30.232C342.629 30.7013 343.279 31.4267 343.685 32.408H343.845C344.421 31.4267 345.199 30.7013 346.181 30.232C347.183 29.7627 348.239 29.528 349.349 29.528ZM367.063 29.528C368.535 29.528 369.793 29.848 370.839 30.488C371.905 31.128 372.716 32.0347 373.271 33.208C373.847 34.36 374.135 35.7147 374.135 37.272V38.968H362.391C362.433 40.9093 362.924 42.392 363.863 43.416C364.823 44.4187 366.156 44.92 367.863 44.92C368.951 44.92 369.911 44.824 370.743 44.632C371.596 44.4187 372.471 44.12 373.367 43.736V46.2C372.492 46.584 371.628 46.8613 370.775 47.032C369.921 47.224 368.908 47.32 367.735 47.32C366.113 47.32 364.673 46.9893 363.415 46.328C362.177 45.6667 361.207 44.6853 360.503 43.384C359.82 42.0613 359.479 40.4507 359.479 38.552C359.479 36.6747 359.788 35.064 360.407 33.72C361.047 32.376 361.932 31.3413 363.063 30.616C364.215 29.8907 365.548 29.528 367.063 29.528ZM367.031 31.832C365.687 31.832 364.62 32.2693 363.831 33.144C363.063 33.9973 362.604 35.192 362.455 36.728H371.191C371.191 35.7467 371.041 34.8933 370.743 34.168C370.444 33.4427 369.985 32.8773 369.367 32.472C368.769 32.0453 367.991 31.832 367.031 31.832ZM386.757 29.528C388.805 29.528 390.352 30.0293 391.397 31.032C392.443 32.0133 392.965 33.6133 392.965 35.832V47H390.181V36.024C390.181 34.6373 389.872 33.6027 389.253 32.92C388.635 32.2373 387.664 31.896 386.341 31.896C384.443 31.896 383.131 32.4293 382.405 33.496C381.68 34.5627 381.317 36.0987 381.317 38.104V47H378.501V29.848H380.773L381.189 32.184H381.349C381.733 31.5867 382.203 31.096 382.757 30.712C383.333 30.3067 383.963 30.008 384.645 29.816C385.328 29.624 386.032 29.528 386.757 29.528ZM404.01 45.016C404.437 45.016 404.875 44.984 405.323 44.92C405.771 44.8347 406.133 44.7493 406.411 44.664V46.808C406.112 46.9573 405.685 47.0747 405.131 47.16C404.576 47.2667 404.043 47.32 403.531 47.32C402.635 47.32 401.803 47.1707 401.035 46.872C400.288 46.552 399.68 46.008 399.211 45.24C398.741 44.472 398.507 43.3947 398.507 42.008V32.024H396.075V30.68L398.539 29.56L399.659 25.912H401.323V29.848H406.283V32.024H401.323V41.944C401.323 42.9893 401.568 43.768 402.059 44.28C402.571 44.7707 403.221 45.016 404.01 45.016Z" fill="white"/>
<g clip-path="url(#clip0_1117_4)">
<path d="M451.046 27.7439C451.054 26.6862 450.202 25.8342 449.144 25.8426L435.606 25.9504C434.548 25.9588 433.683 26.8245 433.674 27.8821C433.666 28.9398 434.518 29.7918 435.576 29.7834L444.498 29.7081L431.415 42.7913C430.66 43.5461 430.651 44.7561 431.394 45.499C432.136 46.2418 433.346 46.2322 434.101 45.4774L447.18 32.3985L447.113 41.3126C447.105 42.3703 447.957 43.2223 449.015 43.2139C450.072 43.2055 450.938 42.3398 450.946 41.2821L451.054 27.7438L451.046 27.7439Z" fill="white"/>
</g>
<defs>
<clipPath id="clip0_1117_4">
<rect width="27.0178" height="23.8014" fill="white" transform="translate(423 37.1045) rotate(-45)"/>
</clipPath>
</defs>
</svg>
